<?xml version="1.0" encoding="UTF-8" standalone="no"?>
<!-- Created with Inkscape (http://www.inkscape.org/) -->

<svg
   width="48.0px"
   height="48.0px"
   viewBox="0 0 48.0 48.0"
   version="1.1"
   id="SVGRoot"
   sodipodi:docname="rad.svg"
   inkscape:version="1.2 (dc2aedaf03, 2022-05-15)"
   xmlns:inkscape="http://www.inkscape.org/namespaces/inkscape"
   xmlns:sodipodi="http://sodipodi.sourceforge.net/DTD/sodipodi-0.dtd"
   xmlns="http://www.w3.org/2000/svg"
   xmlns:svg="http://www.w3.org/2000/svg">
  <sodipodi:namedview
     id="namedview137"
     pagecolor="#ffffff"
     bordercolor="#000000"
     borderopacity="0.25"
     inkscape:showpageshadow="2"
     inkscape:pageopacity="0.0"
     inkscape:pagecheckerboard="0"
     inkscape:deskcolor="#d1d1d1"
     inkscape:document-units="px"
     showgrid="true"
     inkscape:zoom="16.000001"
     inkscape:cx="25.437499"
     inkscape:cy="35.812498"
     inkscape:window-width="1920"
     inkscape:window-height="1057"
     inkscape:window-x="-8"
     inkscape:window-y="-8"
     inkscape:window-maximized="1"
     inkscape:current-layer="layer1">
    <inkscape:grid
       type="xygrid"
       id="grid260" />
  </sodipodi:namedview>
  <defs
     id="defs132">
    <inkscape:path-effect
       effect="fillet_chamfer"
       id="path-effect5578"
       is_visible="true"
       lpeversion="1"
       nodesatellites_param="F,0,0,1,0,2,0,1 @ F,0,0,1,0,2,0,1 @ F,0,0,1,0,2,0,1"
       unit="px"
       method="auto"
       mode="F"
       radius="2"
       chamfer_steps="1"
       flexible="false"
       use_knot_distance="true"
       apply_no_radius="true"
       apply_with_radius="true"
       only_selected="false"
       hide_knots="false" />
    <inkscape:path-effect
       effect="fillet_chamfer"
       id="path-effect4116"
       is_visible="true"
       lpeversion="1"
       nodesatellites_param="F,0,0,1,0,6,0,1 @ F,0,0,1,0,6,0,1 @ F,0,0,1,0,6,0,1"
       unit="px"
       method="auto"
       mode="F"
       radius="6"
       chamfer_steps="1"
       flexible="false"
       use_knot_distance="true"
       apply_no_radius="true"
       apply_with_radius="true"
       only_selected="false"
       hide_knots="false" />
    <inkscape:path-effect
       effect="bspline"
       id="path-effect4114"
       is_visible="true"
       lpeversion="1"
       weight="33.333333"
       steps="1"
       helper_size="0"
       apply_no_weight="true"
       apply_with_weight="true"
       only_selected="false" />
  </defs>
  <g
     inkscape:label="Слой 1"
     inkscape:groupmode="layer"
     id="layer1">
    <g
       id="g1028">
      <g
         id="g39468"
         transform="matrix(1.1103934,0,0,1.1103934,-2.5808934,-2.3765584)">
        <path
           style="opacity:1;fill:#fef200;fill-opacity:1;stroke:none;stroke-width:1.00157;stroke-dasharray:none;stroke-opacity:1"
           d="M 27.874939,5.6875201 45.075997,37.759581 a 3.6001419,3.6001419 120.82946 0 1 -3.164145,5.301702 L 5.9999833,43.14608 A 3.43017,3.43017 60.108322 0 1 3.0318601,37.982621 L 22.007241,5.5776129 a 3.3641325,3.3641325 1.0730747 0 1 5.867698,0.1099072 z"
           id="path537"
           inkscape:path-effect="#path-effect4116"
           inkscape:original-d="M 25.039101,0.39998564 47.911835,43.047115 0,43.160248 Z" />
        <path
           style="opacity:1;fill:#fef200;fill-opacity:1;stroke:#000000;stroke-width:2.69102;stroke-dasharray:none;stroke-opacity:1"
           d="M 25.869963,7.0336989 42.985732,38.922767 a 1.1996192,1.1996192 120.82055 0 1 -1.054163,1.766934 L 6.116426,40.774207 A 1.1429576,1.1429576 60.11776 0 1 5.1276171,39.053382 L 23.912946,6.9970279 a 1.1222198,1.1222198 1.0734953 0 1 1.957017,0.036671 z"
           id="path5574"
           inkscape:path-effect="#path-effect5578"
           inkscape:original-d="M 24.924132,5.2714834 43.931563,40.684982 4.1164316,40.778926 Z" />
        <path
           id="path20926"
           style="opacity:1;fill:#000000;fill-opacity:1;stroke:none;stroke-width:2.85279;stroke-dasharray:none;stroke-opacity:1"
           d="m 24.439453,21.080078 a 8.1759224,8.1759224 0 0 0 -0.154297,0.01172 8.1759224,8.1759224 0 0 1 1.044922,0.03906 8.1759224,8.1759224 0 0 0 -0.890625,-0.05078 z m -0.154297,0.01172 a 8.1759224,8.1759224 0 0 0 -0.542968,0.03906 8.1759224,8.1759224 0 0 1 0.542968,-0.03906 z m -0.542968,0.03906 a 8.1759224,8.1759224 0 0 0 -0.632813,0.06836 8.1759224,8.1759224 0 0 1 0.632813,-0.06836 z m -0.632813,0.06836 a 8.1759224,8.1759224 0 0 0 -0.533203,0.117187 8.1759224,8.1759224 0 0 1 0.533203,-0.117187 z m -0.533203,0.117187 a 8.1759224,8.1759224 0 0 0 -0.603516,0.15625 8.1759224,8.1759224 0 0 1 0.603516,-0.15625 z m -0.603516,0.15625 a 8.1759224,8.1759224 0 0 0 -0.539062,0.201172 8.1759224,8.1759224 0 0 1 0.539062,-0.201172 z m -0.539062,0.201172 a 8.1759224,8.1759224 0 0 0 -0.560547,0.238281 8.1759224,8.1759224 0 0 1 0.560547,-0.238281 z m -0.560547,0.238281 a 8.1759224,8.1759224 0 0 0 -0.488281,0.267579 8.1759224,8.1759224 0 0 1 0.488281,-0.267579 z m -0.488281,0.267579 a 8.1759224,8.1759224 0 0 0 -0.53125,0.322265 8.1759224,8.1759224 0 0 1 0.53125,-0.322265 z m -0.53125,0.322265 a 8.1759224,8.1759224 0 0 0 -0.453125,0.339844 8.1759224,8.1759224 0 0 1 0.453125,-0.339844 z m -0.453125,0.339844 a 8.1759224,8.1759224 0 0 0 -0.472657,0.394531 8.1759224,8.1759224 0 0 1 0.472657,-0.394531 z m -0.472657,0.394531 a 8.1759224,8.1759224 0 0 0 -0.160156,0.132813 8.1759224,8.1759224 0 0 0 -0.226562,0.251953 8.1759224,8.1759224 0 0 1 0.386718,-0.384766 z m -0.386718,0.384766 a 8.1759224,8.1759224 0 0 0 -0.431641,0.482422 8.1759224,8.1759224 0 0 1 0.431641,-0.482422 z m -0.431641,0.482422 a 8.1759224,8.1759224 0 0 0 -0.316406,0.423828 8.1759224,8.1759224 0 0 1 0.316406,-0.423828 z m -0.316406,0.423828 a 8.1759224,8.1759224 0 0 0 -0.353516,0.53125 8.1759224,8.1759224 0 0 1 0.353516,-0.53125 z m -0.353516,0.53125 a 8.1759224,8.1759224 0 0 0 -0.265625,0.486328 8.1759224,8.1759224 0 0 1 0.265625,-0.486328 z m -0.265625,0.486328 a 8.1759224,8.1759224 0 0 0 -0.269531,0.576172 8.1759224,8.1759224 0 0 1 0.269531,-0.576172 z m -0.269531,0.576172 A 8.1759224,8.1759224 0 0 0 16.71875,26.61914 8.1759224,8.1759224 0 0 1 16.904297,26.121093 Z M 16.71875,26.61914 a 8.1759224,8.1759224 0 0 0 -0.185547,0.611328 8.1759224,8.1759224 0 0 1 0.185547,-0.611328 z m -0.185547,0.611328 a 8.1759224,8.1759224 0 0 0 -0.119141,0.544922 8.1759224,8.1759224 0 0 1 0.119141,-0.544922 z m -0.119141,0.544922 a 8.1759224,8.1759224 0 0 0 -0.08984,0.609375 8.1759224,8.1759224 0 0 1 0.08984,-0.609375 z m -0.08984,0.609375 a 8.1759224,8.1759224 0 0 0 -0.03906,0.566406 8.1759224,8.1759224 0 0 1 0.03906,-0.566406 z m -0.03906,0.566406 a 8.1759224,8.1759224 0 0 0 -0.02148,0.304687 8.1759224,8.1759224 0 0 0 0.02148,0.304688 8.1759224,8.1759224 0 0 1 0,-0.609375 z m 0,0.609375 a 8.1759224,8.1759224 0 0 0 0.03906,0.556641 8.1759224,8.1759224 0 0 1 -0.03906,-0.556641 z m 0.03906,0.556641 A 8.1759224,8.1759224 0 0 0 16.417969,30.75 8.1759224,8.1759224 0 0 1 16.324219,30.117188 Z M 16.417969,30.75 A 8.1759224,8.1759224 0 0 0 16.529297,31.267578 8.1759224,8.1759224 0 0 1 16.417969,30.75 Z m 0.111328,0.517578 a 8.1759224,8.1759224 0 0 0 0.1875,0.623047 8.1759224,8.1759224 0 0 1 -0.1875,-0.623047 z m 0.1875,0.623047 a 8.1759224,8.1759224 0 0 0 0.189453,0.507813 8.1759224,8.1759224 0 0 1 -0.189453,-0.507813 z m 0.189453,0.507813 a 8.1759224,8.1759224 0 0 0 0.267578,0.568359 8.1759224,8.1759224 0 0 1 -0.267578,-0.568359 z m 0.267578,0.568359 a 8.1759224,8.1759224 0 0 0 0.134766,0.289062 8.1759224,8.1759224 0 0 0 0.126953,0.191407 8.1759224,8.1759224 0 0 1 -0.261719,-0.480469 z m 0.261719,0.480469 a 8.1759224,8.1759224 0 0 0 0.353515,0.535156 8.1759224,8.1759224 0 0 1 -0.353515,-0.535156 z m 0.353515,0.535156 a 8.1759224,8.1759224 0 0 0 0.322266,0.43164 8.1759224,8.1759224 0 0 1 -0.322266,-0.43164 z m 0.322266,0.43164 a 8.1759224,8.1759224 0 0 0 0.425781,0.47461 8.1759224,8.1759224 0 0 1 -0.425781,-0.47461 z m 0.425781,0.47461 a 8.1759224,8.1759224 0 0 0 0.386719,0.384766 8.1759224,8.1759224 0 0 1 -0.386719,-0.384766 z m 0.386719,0.384766 a 8.1759224,8.1759224 0 0 0 0.486328,0.404296 8.1759224,8.1759224 0 0 1 -0.486328,-0.404296 z m 0.486328,0.404296 a 8.1759224,8.1759224 0 0 0 0.4375,0.328125 8.1759224,8.1759224 0 0 1 -0.4375,-0.328125 z m 0.4375,0.328125 A 8.1759224,8.1759224 0 0 0 20.375,36.328125 8.1759224,8.1759224 0 0 1 19.847656,36.005859 Z M 20.375,36.328125 A 8.1759224,8.1759224 0 0 0 20.876953,36.603516 8.1759224,8.1759224 0 0 1 20.375,36.328125 Z m 0.501953,0.275391 a 8.1759224,8.1759224 0 0 0 0.558594,0.236328 8.1759224,8.1759224 0 0 1 -0.558594,-0.236328 z m 0.558594,0.236328 a 8.1759224,8.1759224 0 0 0 0.53125,0.199218 8.1759224,8.1759224 0 0 1 -0.53125,-0.199218 z m 0.53125,0.199218 a 8.1759224,8.1759224 0 0 0 0.59375,0.154297 8.1759224,8.1759224 0 0 1 -0.59375,-0.154297 z m 0.59375,0.154297 a 8.1759224,8.1759224 0 0 0 0.554687,0.121094 8.1759224,8.1759224 0 0 1 -0.554687,-0.121094 z m 0.554687,0.121094 a 8.1759224,8.1759224 0 0 0 0.589844,0.06641 8.1759224,8.1759224 0 0 1 -0.589844,-0.06641 z m 0.589844,0.06641 a 8.1759224,8.1759224 0 0 0 0.59375,0.04102 8.1759224,8.1759224 0 0 1 -0.59375,-0.04102 z m 0.59375,0.04102 a 8.1759224,8.1759224 0 0 0 0.140625,0.0098 8.1759224,8.1759224 0 0 0 0.464844,-0.0332 8.1759224,8.1759224 0 0 1 -0.605469,0.02344 z m 0.605469,-0.02344 a 8.1759224,8.1759224 0 0 0 0.550781,-0.03906 8.1759224,8.1759224 0 0 1 -0.550781,0.03906 z m 0.550781,-0.03906 a 8.1759224,8.1759224 0 0 0 0.660156,-0.121094 8.1759224,8.1759224 0 0 1 -0.660156,0.121094 z m 0.660156,-0.121094 a 8.1759224,8.1759224 0 0 0 0.390625,-0.07227 8.1759224,8.1759224 0 0 0 0.201172,-0.05664 8.1759224,8.1759224 0 0 1 -0.591797,0.128906 z m 0.591797,-0.128906 a 8.1759224,8.1759224 0 0 0 0.05859,-0.01758 8.1759224,8.1759224 0 0 1 -0.05859,0.01758 z m 0.05859,-0.01758 a 8.1759224,8.1759224 0 0 0 1.060547,-0.394531 8.1759224,8.1759224 0 0 1 -1.060547,0.394531 z M 25.351562,21.132812 a 8.1759224,8.1759224 0 0 1 1.134766,0.210938 8.1759224,8.1759224 0 0 0 -1.134766,-0.210938 z m 1.134766,0.210938 a 8.1759224,8.1759224 0 0 1 0.0625,0.01563 8.1759224,8.1759224 0 0 0 -0.0625,-0.01563 z m 0.0625,0.01563 a 8.1759224,8.1759224 0 0 1 1.085938,0.373047 8.1759224,8.1759224 0 0 0 -1.085938,-0.373047 z m 1.101563,0.378906 a 8.1759224,8.1759224 0 0 1 1.027343,0.527344 8.1759224,8.1759224 0 0 0 -1.027343,-0.527344 z m 1.027343,0.527344 a 8.1759224,8.1759224 0 0 1 0.02344,0.01563 l 0.002,-0.002 a 8.1759224,8.1759224 0 0 0 -0.02539,-0.01367 z m 0.02344,0.01563 -4.261719,6.974609 h 8.175781 A 8.1759224,8.1759224 0 0 0 28.701172,22.28125 Z m 3.914062,6.974609 a 8.1759224,8.1759224 0 0 1 -0.08398,1.15625 8.1759224,8.1759224 0 0 0 0.08398,-1.15625 z m -0.08594,1.169922 a 8.1759224,8.1759224 0 0 1 -0.246094,1.13086 8.1759224,8.1759224 0 0 0 0.246094,-1.13086 z m -0.248047,1.140625 a 8.1759224,8.1759224 0 0 1 -0.402344,1.080078 8.1759224,8.1759224 0 0 0 0.402344,-1.080078 z m -0.408203,1.09375 a 8.1759224,8.1759224 0 0 1 -0.535156,0.980469 8.1759224,8.1759224 0 0 0 0.535156,-0.980469 z m -0.535156,0.980469 a 8.1759224,8.1759224 0 0 1 -0.03906,0.0625 8.1759224,8.1759224 0 0 0 0.03906,-0.0625 z m -0.03906,0.0625 a 8.1759224,8.1759224 0 0 1 -0.65625,0.876953 8.1759224,8.1759224 0 0 0 0.65625,-0.876953 z m -0.65625,0.876953 a 8.1759224,8.1759224 0 0 1 -0.05469,0.0625 8.1759224,8.1759224 0 0 0 0.05469,-0.0625 z m -0.05469,0.0625 a 8.1759224,8.1759224 0 0 1 -0.785157,0.783203 8.1759224,8.1759224 0 0 0 0.785157,-0.783203 z m -0.810547,0.804688 A 8.1759224,8.1759224 0 0 1 28.875,36.123047 8.1759224,8.1759224 0 0 0 29.777344,35.447266 Z m -0.929688,0.693359 a 8.1759224,8.1759224 0 0 1 -1.001953,0.546875 8.1759224,8.1759224 0 0 0 1.001953,-0.546875 z" />
        <path
           id="path29209"
           style="opacity:1;fill:#000000;fill-opacity:1;stroke:none;stroke-width:2.85279;stroke-dasharray:none;stroke-opacity:1"
           d="m 17.465217,33.522407 a 8.1759224,8.1759224 0 0 0 0.09052,0.125506 8.1759224,8.1759224 0 0 1 -0.511974,-0.911741 8.1759224,8.1759224 0 0 0 0.421457,0.786235 z m 0.09052,0.125506 a 8.1759224,8.1759224 0 0 0 0.31667,0.442786 8.1759224,8.1759224 0 0 1 -0.31667,-0.442786 z m 0.31667,0.442786 a 8.1759224,8.1759224 0 0 0 0.388548,0.504139 8.1759224,8.1759224 0 0 1 -0.388548,-0.504139 z m 0.388548,0.504139 a 8.1759224,8.1759224 0 0 0 0.378218,0.393687 8.1759224,8.1759224 0 0 1 -0.378218,-0.393687 z m 0.378218,0.393687 a 8.1759224,8.1759224 0 0 0 0.448233,0.433281 8.1759224,8.1759224 0 0 1 -0.448233,-0.433281 z m 0.448233,0.433281 a 8.1759224,8.1759224 0 0 0 0.452917,0.354858 8.1759224,8.1759224 0 0 1 -0.452917,-0.354858 z m 0.452917,0.354858 a 8.1759224,8.1759224 0 0 0 0.495785,0.353819 8.1759224,8.1759224 0 0 1 -0.495785,-0.353819 z m 0.495785,0.353819 a 8.1759224,8.1759224 0 0 0 0.483065,0.276885 8.1759224,8.1759224 0 0 1 -0.483065,-0.276885 z m 0.483065,0.276885 a 8.1759224,8.1759224 0 0 0 0.552138,0.285001 8.1759224,8.1759224 0 0 1 -0.552138,-0.285001 z m 0.552138,0.285001 a 8.1759224,8.1759224 0 0 0 0.526363,0.209183 8.1759224,8.1759224 0 0 1 -0.526363,-0.209183 z m 0.526363,0.209183 a 8.1759224,8.1759224 0 0 0 0.583206,0.197307 8.1759224,8.1759224 0 0 1 -0.583206,-0.197307 z m 0.583206,0.197307 a 8.1759224,8.1759224 0 0 0 0.196872,0.06731 8.1759224,8.1759224 0 0 0 0.333157,0.06178 8.1759224,8.1759224 0 0 1 -0.530029,-0.129093 z m 0.530029,0.129093 a 8.1759224,8.1759224 0 0 0 0.636776,0.116453 8.1759224,8.1759224 0 0 1 -0.636776,-0.116453 z m 0.636776,0.116453 a 8.1759224,8.1759224 0 0 0 0.526658,0.04873 8.1759224,8.1759224 0 0 1 -0.526658,-0.04873 z m 0.526658,0.04873 a 8.1759224,8.1759224 0 0 0 0.637658,0.02433 8.1759224,8.1759224 0 0 1 -0.637658,-0.02433 z m 0.637658,0.02433 a 8.1759224,8.1759224 0 0 0 0.553472,-0.0272 8.1759224,8.1759224 0 0 1 -0.553472,0.0272 z m 0.553472,-0.0272 a 8.1759224,8.1759224 0 0 0 0.632151,-0.07076 8.1759224,8.1759224 0 0 1 -0.632151,0.07076 z m 0.632151,-0.07076 a 8.1759224,8.1759224 0 0 0 0.52168,-0.101629 8.1759224,8.1759224 0 0 1 -0.52168,0.101629 z m 0.52168,-0.101629 a 8.1759224,8.1759224 0 0 0 0.618313,-0.160744 8.1759224,8.1759224 0 0 1 -0.618313,0.160744 z m 0.618313,-0.160744 a 8.1759224,8.1759224 0 0 0 0.527012,-0.182737 8.1759224,8.1759224 0 0 1 -0.527012,0.182737 z m 0.527012,-0.182737 a 8.1759224,8.1759224 0 0 0 0.566704,-0.241364 8.1759224,8.1759224 0 0 1 -0.566704,0.241364 z m 0.566704,-0.241364 a 8.1759224,8.1759224 0 0 0 0.50355,-0.262258 8.1759224,8.1759224 0 0 1 -0.50355,0.262258 z m 0.50355,-0.262258 a 8.1759224,8.1759224 0 0 0 0.27112,-0.140675 8.1759224,8.1759224 0 0 0 0.248698,-0.177329 8.1759224,8.1759224 0 0 1 -0.519818,0.318004 z m 0.519818,-0.318004 a 8.1759224,8.1759224 0 0 0 0.45445,-0.323806 8.1759224,8.1759224 0 0 1 -0.45445,0.323806 z m 0.45445,-0.323806 a 8.1759224,8.1759224 0 0 0 0.490888,-0.410207 8.1759224,8.1759224 0 0 1 -0.490888,0.410207 z m 0.490888,-0.410207 a 8.1759224,8.1759224 0 0 0 0.383416,-0.365066 8.1759224,8.1759224 0 0 1 -0.383416,0.365066 z m 0.383416,-0.365066 a 8.1759224,8.1759224 0 0 0 0.433634,-0.485082 8.1759224,8.1759224 0 0 1 -0.433634,0.485082 z m 0.433634,-0.485082 a 8.1759224,8.1759224 0 0 0 0.334317,-0.426614 8.1759224,8.1759224 0 0 1 -0.334317,0.426614 z m 0.334317,-0.426614 A 8.1759224,8.1759224 0 0 0 31.3966,33.517142 8.1759224,8.1759224 0 0 1 31.051406,34.041994 Z M 31.3966,33.517142 a 8.1759224,8.1759224 0 0 0 0.176253,-0.265808 8.1759224,8.1759224 0 0 0 0.09703,-0.208182 8.1759224,8.1759224 0 0 1 -0.273279,0.47399 z m 0.273279,-0.47399 a 8.1759224,8.1759224 0 0 0 0.272025,-0.580833 8.1759224,8.1759224 0 0 1 -0.272025,0.580833 z m 0.272025,-0.580833 A 8.1759224,8.1759224 0 0 0 32.14193,31.96216 8.1759224,8.1759224 0 0 1 31.941901,32.462317 Z M 32.14193,31.96216 a 8.1759224,8.1759224 0 0 0 0.182665,-0.610883 8.1759224,8.1759224 0 0 1 -0.182665,0.610883 z m 0.182665,-0.610883 a 8.1759224,8.1759224 0 0 0 0.126409,-0.530676 8.1759224,8.1759224 0 0 1 -0.126409,0.530676 z m 0.126409,-0.530676 a 8.1759224,8.1759224 0 0 0 0.09109,-0.625838 8.1759224,8.1759224 0 0 1 -0.09109,0.625838 z m 0.09109,-0.625838 a 8.1759224,8.1759224 0 0 0 0.05159,-0.544436 8.1759224,8.1759224 0 0 1 -0.05159,0.544436 z m 0.05159,-0.544436 a 8.1759224,8.1759224 0 0 0 -2.91e-4,-0.618018 8.1759224,8.1759224 0 0 1 2.91e-4,0.618018 z m -2.91e-4,-0.618018 a 8.1759224,8.1759224 0 0 0 -0.02703,-0.571898 8.1759224,8.1759224 0 0 1 0.02703,0.571898 z m -0.02703,-0.571898 a 8.1759224,8.1759224 0 0 0 -0.08991,-0.599829 8.1759224,8.1759224 0 0 1 0.08991,0.599829 z m -0.08991,-0.599829 a 8.1759224,8.1759224 0 0 0 -0.107294,-0.557137 8.1759224,8.1759224 0 0 1 0.107294,0.557137 z m -0.107294,-0.557137 a 8.1759224,8.1759224 0 0 0 -0.178229,-0.587011 8.1759224,8.1759224 0 0 1 0.178229,0.587011 z M 32.19093,26.716434 a 8.1759224,8.1759224 0 0 0 -0.186167,-0.536361 8.1759224,8.1759224 0 0 1 0.186167,0.536361 z m -0.18616,-0.536361 a 8.1759224,8.1759224 0 0 0 -0.251164,-0.537812 8.1759224,8.1759224 0 0 1 0.251164,0.537812 z m -0.251164,-0.537812 a 8.1759224,8.1759224 0 0 0 -0.274862,-0.527895 8.1759224,8.1759224 0 0 1 0.274862,0.527895 z m -0.274862,-0.527895 a 8.1759224,8.1759224 0 0 0 -0.06505,-0.125054 8.1759224,8.1759224 0 0 0 -0.270903,-0.379202 8.1759224,8.1759224 0 0 1 0.335958,0.504256 z M 31.142786,24.61011 a 8.1759224,8.1759224 0 0 0 -0.320748,-0.449451 8.1759224,8.1759224 0 0 1 0.320748,0.449451 z m -0.320748,-0.449451 a 8.1759224,8.1759224 0 0 0 -0.447801,-0.499944 8.1759224,8.1759224 0 0 1 0.447801,0.499944 z m -0.447801,-0.499944 a 8.1759224,8.1759224 0 0 0 -0.265493,-0.295505 8.1759224,8.1759224 0 0 0 -0.153299,-0.142049 8.1759224,8.1759224 0 0 1 0.418792,0.437554 z m -0.418792,-0.437554 a 8.1759224,8.1759224 0 0 0 -0.04557,-0.04081 8.1759224,8.1759224 0 0 1 0.04557,0.04081 z m -0.04557,-0.04081 a 8.1759224,8.1759224 0 0 0 -0.889998,-0.698798 8.1759224,8.1759224 0 0 1 0.889998,0.698798 z m -12.875658,9.534475 a 8.1759224,8.1759224 0 0 1 -0.412242,-1.078075 8.1759224,8.1759224 0 0 0 0.412242,1.078075 z m -0.412242,-1.078075 a 8.1759224,8.1759224 0 0 1 -0.01929,-0.06147 8.1759224,8.1759224 0 0 0 0.01929,0.06147 z m -0.01929,-0.06147 a 8.1759224,8.1759224 0 0 1 -0.248476,-1.12102 8.1759224,8.1759224 0 0 0 0.248476,1.12102 z m -0.251632,-1.137406 a 8.1759224,8.1759224 0 0 1 -0.08628,-1.151556 8.1759224,8.1759224 0 0 0 0.08628,1.151556 z m -0.08628,-1.151556 a 8.1759224,8.1759224 0 0 1 0.0011,-0.02815 l -0.0027,-6.46e-4 a 8.1759224,8.1759224 0 0 0 0.0016,0.02879 z m 0.0011,-0.02815 8.17358,-0.0043 -4.266548,-6.974236 a 8.1759224,8.1759224 0 0 0 -3.907032,6.978549 z m 3.907032,-6.978549 a 8.1759224,8.1759224 0 0 1 1.03015,-0.53175 8.1759224,8.1759224 0 0 0 -1.03015,0.53175 z m 1.042832,-0.537219 a 8.1759224,8.1759224 0 0 1 1.093089,-0.380214 8.1759224,8.1759224 0 0 0 -1.093089,0.380214 z m 1.102438,-0.383644 a 8.1759224,8.1759224 0 0 1 1.13131,-0.220427 8.1759224,8.1759224 0 0 0 -1.13131,0.220427 z m 1.14603,-0.222564 a 8.1759224,8.1759224 0 0 1 1.115648,-0.05515 8.1759224,8.1759224 0 0 0 -1.115648,0.05515 z m 1.115648,-0.05515 a 8.1759224,8.1759224 0 0 1 0.0737,7.06e-4 8.1759224,8.1759224 0 0 0 -0.0737,-7.06e-4 z m 0.0737,7.06e-4 a 8.1759224,8.1759224 0 0 1 1.090538,0.102165 8.1759224,8.1759224 0 0 0 -1.090538,-0.102165 z m 1.090538,0.102165 a 8.1759224,8.1759224 0 0 1 0.08185,0.01403 8.1759224,8.1759224 0 0 0 -0.08185,-0.01403 z m 0.08185,0.01403 a 8.1759224,8.1759224 0 0 1 1.077836,0.261052 8.1759224,8.1759224 0 0 0 -1.077836,-0.261052 z m 1.109413,0.271498 a 8.1759224,8.1759224 0 0 1 1.047356,0.417075 8.1759224,8.1759224 0 0 0 -1.047356,-0.417075 z m 1.07662,0.431227 a 8.1759224,8.1759224 0 0 1 0.989375,0.569314 8.1759224,8.1759224 0 0 0 -0.989375,-0.569314 z" />
        <path
           id="path29211"
           style="opacity:1;fill:#000000;fill-opacity:1;stroke:none;stroke-width:2.85279;stroke-dasharray:none;stroke-opacity:1"
           d="m 31.584911,33.200352 a 8.1759224,8.1759224 0 0 0 0.0645,-0.14066 8.1759224,8.1759224 0 0 1 -0.540424,0.895171 8.1759224,8.1759224 0 0 0 0.47592,-0.754514 z m 0.0645,-0.14066 a 8.1759224,8.1759224 0 0 0 0.22889,-0.493912 8.1759224,8.1759224 0 0 1 -0.22889,0.493912 z m 0.22889,-0.493912 a 8.1759224,8.1759224 0 0 0 0.24679,-0.586703 8.1759224,8.1759224 0 0 1 -0.24679,0.586703 z m 0.24679,-0.586703 a 8.1759224,8.1759224 0 0 0 0.155815,-0.52322 8.1759224,8.1759224 0 0 1 -0.155815,0.52322 z m 0.155815,-0.52322 a 8.1759224,8.1759224 0 0 0 0.155709,-0.603656 8.1759224,8.1759224 0 0 1 -0.155709,0.603656 z m 0.155709,-0.603656 a 8.1759224,8.1759224 0 0 0 0.08518,-0.569035 8.1759224,8.1759224 0 0 1 -0.08518,0.569035 z m 0.08518,-0.569035 a 8.1759224,8.1759224 0 0 0 0.06313,-0.60581 8.1759224,8.1759224 0 0 1 -0.06313,0.60581 z m 0.06313,-0.60581 a 8.1759224,8.1759224 0 0 0 0.0025,-0.556786 8.1759224,8.1759224 0 0 1 -0.0025,0.556786 z m 0.0025,-0.556786 a 8.1759224,8.1759224 0 0 0 -0.02453,-0.62087 8.1759224,8.1759224 0 0 1 0.02453,0.62087 z m -0.02453,-0.62087 a 8.1759224,8.1759224 0 0 0 -0.07776,-0.561043 8.1759224,8.1759224 0 0 1 0.07776,0.561043 z m -0.07776,-0.561043 a 8.1759224,8.1759224 0 0 0 -0.116137,-0.604625 8.1759224,8.1759224 0 0 1 0.116137,0.604625 z m -0.116137,-0.604625 a 8.1759224,8.1759224 0 0 0 -0.03859,-0.20445 8.1759224,8.1759224 0 0 0 -0.110644,-0.320263 8.1759224,8.1759224 0 0 1 0.149232,0.524715 z m -0.149233,-0.524715 a 8.1759224,8.1759224 0 0 0 -0.212896,-0.611326 8.1759224,8.1759224 0 0 1 0.212896,0.611326 z M 32.006869,26.197991 A 8.1759224,8.1759224 0 0 0 31.7894,25.71586 8.1759224,8.1759224 0 0 1 32.006869,26.197991 Z M 31.789394,25.71586 a 8.1759224,8.1759224 0 0 0 -0.29346,-0.56664 8.1759224,8.1759224 0 0 1 0.29346,0.56664 z m -0.29346,-0.56664 a 8.1759224,8.1759224 0 0 0 -0.296743,-0.46799 8.1759224,8.1759224 0 0 1 0.296743,0.46799 z m -0.296743,-0.46799 a 8.1759224,8.1759224 0 0 0 -0.373452,-0.514933 8.1759224,8.1759224 0 0 1 0.373452,0.514933 z m -0.373452,-0.514933 a 8.1759224,8.1759224 0 0 0 -0.345796,-0.403613 8.1759224,8.1759224 0 0 1 0.345796,0.403613 z m -0.345796,-0.403613 a 8.1759224,8.1759224 0 0 0 -0.444892,-0.458498 8.1759224,8.1759224 0 0 1 0.444892,0.458498 z m -0.444892,-0.458498 a 8.1759224,8.1759224 0 0 0 -0.418974,-0.368233 8.1759224,8.1759224 0 0 1 0.418974,0.368233 z m -0.418974,-0.368233 a 8.1759224,8.1759224 0 0 0 -0.489552,-0.37383 8.1759224,8.1759224 0 0 1 0.489552,0.37383 z m -0.489552,-0.37383 a 8.1759224,8.1759224 0 0 0 -0.476566,-0.308589 8.1759224,8.1759224 0 0 1 0.476566,0.308589 z M 28.649959,22.253534 A 8.1759224,8.1759224 0 0 0 28.393829,22.087123 8.1759224,8.1759224 0 0 0 28.11688,21.9583 8.1759224,8.1759224 0 0 1 28.649959,22.253534 Z M 28.11688,21.9583 A 8.1759224,8.1759224 0 0 0 27.611006,21.722785 8.1759224,8.1759224 0 0 1 28.11688,21.9583 Z m -0.505874,-0.235515 a 8.1759224,8.1759224 0 0 0 -0.599004,-0.224577 8.1759224,8.1759224 0 0 1 0.599004,0.224577 z m -0.599004,-0.224577 a 8.1759224,8.1759224 0 0 0 -0.506713,-0.153371 8.1759224,8.1759224 0 0 1 0.506713,0.153371 z m -0.506713,-0.153371 a 8.1759224,8.1759224 0 0 0 -0.635881,-0.137835 8.1759224,8.1759224 0 0 1 0.635881,0.137835 z m -0.635881,-0.137835 a 8.1759224,8.1759224 0 0 0 -0.536022,-0.0803 8.1759224,8.1759224 0 0 1 0.536022,0.0803 z m -0.536022,-0.0803 a 8.1759224,8.1759224 0 0 0 -0.626837,-0.04129 8.1759224,8.1759224 0 0 1 0.626837,0.04129 z m -0.626837,-0.04129 a 8.1759224,8.1759224 0 0 0 -0.318164,-0.02216 8.1759224,8.1759224 0 0 0 -0.228951,0.01832 8.1759224,8.1759224 0 0 1 0.547113,0.0038 z m -0.547113,-0.0038 a 8.1759224,8.1759224 0 0 0 -0.639427,0.04998 8.1759224,8.1759224 0 0 1 0.639427,-0.04998 z m -0.639427,0.04998 a 8.1759224,8.1759224 0 0 0 -0.533733,0.0728 8.1759224,8.1759224 0 0 1 0.533732,-0.07279 z m -0.533733,0.0728 a 8.1759224,8.1759224 0 0 0 -0.621474,0.142529 8.1759224,8.1759224 0 0 1 0.621474,-0.142529 z m -0.621474,0.142529 a 8.1759224,8.1759224 0 0 0 -0.523953,0.151886 8.1759224,8.1759224 0 0 1 0.523953,-0.151886 z m -0.523953,0.151886 a 8.1759224,8.1759224 0 0 0 -0.589298,0.22956 8.1759224,8.1759224 0 0 1 0.589298,-0.22956 z m -0.589298,0.22956 a 8.1759224,8.1759224 0 0 0 -0.499006,0.223753 8.1759224,8.1759224 0 0 1 0.499006,-0.223753 z m -0.499006,0.223753 a 8.1759224,8.1759224 0 0 0 -0.537409,0.305185 8.1759224,8.1759224 0 0 1 0.537409,-0.305185 z m -0.537409,0.305185 a 8.1759224,8.1759224 0 0 0 -0.484101,0.305687 8.1759224,8.1759224 0 0 1 0.484101,-0.305687 z m -0.484101,0.305687 a 8.1759224,8.1759224 0 0 0 -0.47737,0.374161 8.1759224,8.1759224 0 0 1 0.47737,-0.374161 z m -0.47737,0.374161 a 8.1759224,8.1759224 0 0 0 -0.431659,0.368217 8.1759224,8.1759224 0 0 1 0.431659,-0.368217 z m -0.431659,0.368217 a 8.1759224,8.1759224 0 0 0 -0.422644,0.444657 8.1759224,8.1759224 0 0 1 0.422644,-0.444657 z m -0.422644,0.444657 a 8.1759224,8.1759224 0 0 0 -0.374672,0.42657 8.1759224,8.1759224 0 0 1 0.374672,-0.42657 z m -0.374675,0.426564 a 8.1759224,8.1759224 0 0 0 -0.343865,0.483821 8.1759224,8.1759224 0 0 1 0.343865,-0.483821 z m -0.343865,0.483821 a 8.1759224,8.1759224 0 0 0 -0.323546,0.49954 8.1759224,8.1759224 0 0 1 0.323546,-0.49954 z m -0.323546,0.49954 a 8.1759224,8.1759224 0 0 0 -0.07668,0.118282 8.1759224,8.1759224 0 0 0 -0.196166,0.422731 8.1759224,8.1759224 0 0 1 0.27284,-0.541018 z m -0.272839,0.541018 a 8.1759224,8.1759224 0 0 0 -0.232675,0.500747 8.1759224,8.1759224 0 0 1 0.232675,-0.500747 z m -0.232675,0.500747 a 8.1759224,8.1759224 0 0 0 -0.213906,0.636171 8.1759224,8.1759224 0 0 1 0.213906,-0.636171 z m -0.213906,0.636171 a 8.1759224,8.1759224 0 0 0 -0.126035,0.37673 8.1759224,8.1759224 0 0 0 -0.04792,0.203426 8.1759224,8.1759224 0 0 1 0.173952,-0.580156 z m -0.173952,0.580156 a 8.1759224,8.1759224 0 0 0 -0.01301,0.05977 8.1759224,8.1759224 0 0 1 0.01301,-0.05977 z m -0.01301,0.05977 a 8.1759224,8.1759224 0 0 0 -0.168688,1.11891 8.1759224,8.1759224 0 0 1 0.168688,-1.11891 z m 14.645981,6.494924 a 8.1759224,8.1759224 0 0 1 -0.734309,0.890493 8.1759224,8.1759224 0 0 0 0.734309,-0.890493 z m -0.734309,0.890493 a 8.1759224,8.1759224 0 0 1 -0.04395,0.04711 8.1759224,8.1759224 0 0 0 0.04395,-0.04711 z m -0.04395,0.04711 a 8.1759224,8.1759224 0 0 1 -0.852466,0.769239 8.1759224,8.1759224 0 0 0 0.852466,-0.769239 z m -0.865161,0.780069 a 8.1759224,8.1759224 0 0 1 -0.959055,0.6432 8.1759224,8.1759224 0 0 0 0.959054,-0.643228 z m -0.959055,0.6432 a 8.1759224,8.1759224 0 0 1 -0.02503,0.01293 l 7.71e-4,0.0027 a 8.1759224,8.1759224 0 0 0 0.02425,-0.0156 z m -0.02503,0.01293 -4.036607,-7.107266 -3.96107,7.152155 a 8.1759224,8.1759224 0 0 0 7.997689,-0.04489 z m -7.997689,0.0449 a 8.1759224,8.1759224 0 0 1 -0.970795,-0.633658 8.1759224,8.1759224 0 0 0 0.970795,0.633658 z m -0.981809,-0.641991 a 8.1759224,8.1759224 0 0 1 -0.870044,-0.763171 8.1759224,8.1759224 0 0 0 0.870044,0.763171 z m -0.87764,-0.76961 a 8.1759224,8.1759224 0 0 1 -0.749919,-0.875256 8.1759224,8.1759224 0 0 0 0.749919,0.875256 z m -0.759041,-0.887005 a 8.1759224,8.1759224 0 0 1 -0.598433,-0.94318 8.1759224,8.1759224 0 0 0 0.598433,0.94318 z m -0.598433,-0.94318 a 8.1759224,8.1759224 0 0 1 -0.03575,-0.06445 8.1759224,8.1759224 0 0 0 0.03575,0.06445 z m -0.03575,-0.06445 a 8.1759224,8.1759224 0 0 1 -0.449211,-0.998959 8.1759224,8.1759224 0 0 0 0.449211,0.998959 z m -0.449211,-0.998959 a 8.1759224,8.1759224 0 0 1 -0.02818,-0.07812 8.1759224,8.1759224 0 0 0 0.02818,0.07812 z m -0.02818,-0.07812 a 8.1759224,8.1759224 0 0 1 -0.304744,-1.066307 8.1759224,8.1759224 0 0 0 0.304744,1.066307 z m -0.311238,-1.098926 a 8.1759224,8.1759224 0 0 1 -0.153996,-1.116778 8.1759224,8.1759224 0 0 0 0.153996,1.116778 z m -0.156126,-1.149214 a 8.1759224,8.1759224 0 0 1 0.007,-1.141461 8.1759224,8.1759224 0 0 0 -0.007,1.141461 z" />
        <circle
           style="opacity:1;fill:#fef200;fill-opacity:1;stroke:none;stroke-width:0.320021;stroke-dasharray:none;stroke-opacity:1"
           id="path29265"
           cx="24.350994"
           cy="29.300741"
           r="2.563262" />
        <circle
           style="opacity:1;fill:#000000;fill-opacity:1;stroke:none;stroke-width:0.186219;stroke-dasharray:none;stroke-opacity:1"
           id="circle35819"
           cx="24.3491"
           cy="29.418484"
           r="1.4915532" />
      </g>
      <rect
         style="fill:#fef200;fill-opacity:1;stroke-width:0.494374"
         id="rect360"
         width="8.6912994"
         height="3.3366599"
         x="20.366369"
         y="19.48963" />
      <rect
         style="fill:#fef200;fill-opacity:1;stroke-width:0.672903"
         id="rect1013"
         width="6.4152994"
         height="8.3747959"
         x="29.050526"
         y="30.317202" />
      <rect
         style="fill:#fef200;fill-opacity:1;stroke-width:0.672903"
         id="rect1015"
         width="6.4152994"
         height="8.3747959"
         x="13.461032"
         y="30.123852" />
    </g>
  </g>
</svg>
