<?xml version="1.0" standalone="no"?>
  <!DOCTYPE svg PUBLIC "-//W3C//DTD SVG 1.1//EN" "http://www.w3.org/Graphics/SVG/1.1/DTD/svg11.dtd" >
  <svg>
  <metadata>
  Created by font-carrier
  </metadata>
  <defs>
  <font id="Lato-Bold" horiz-adv-x="2742" vert-adv-y="2742" >
    <font-face
      
      font-family="Lato"
      
      font-weight="400"
      
      font-stretch="normal"
      
      units-per-em="2000"
      
      ascent="1974"
      
      descent="-426"
      
    />
      <missing-glyph />

      

      
      <glyph glyph-name="uni41" unicode="&#x41;" d="M925 546L749 1027Q736 1059 722 1103Q708 1147 694 1198Q681 1147 667 1102.50Q653 1058 640 1025L465 546L925 546M1400 0L1192 0Q1157 0 1135 17.50Q1113 35 1102 61L994 356L395 356L287 61Q279 38 256 19Q233 0 199 0L-11 0L558 1446L832 1446L1400 0Z"  horiz-adv-x="1389" vert-adv-y="2000"  />

      
      <glyph glyph-name="uni0104" unicode="&#x0104;" d="M923 546L747 1027Q734 1059 720 1103Q706 1147 692 1198Q679 1147 665 1102.50Q651 1058 638 1025L463 546L923 546M1447-294Q1414-316 1364.50-330.50Q1315-345 1260-345Q1162-345 1109-304Q1056-263 1056-198Q1056-143 1092.50-92.50Q1129-42 1197 0L1190 0Q1155 0 1133 17.50Q1111 35 1100 61L992 356L393 356L285 61Q277 38 254 19Q231 0 197 0L-13 0L556 1446L830 1446L1398 0L1346 0Q1326-11 1307-25Q1288-39 1273-56.50Q1258-74 1249-94Q1240-114 1240-136Q1240-166 1259-183.50Q1278-201 1312-201Q1331-201 1343-199Q1355-197 1362.50-194Q1370-191 1375.50-189Q1381-187 1386-187Q1404-187 1409-203L1447-294Z"  horiz-adv-x="1387" vert-adv-y="2000"  />

      
      <glyph glyph-name="unic6" unicode="&#xc6;" d="M924 546L838 1246Q822 1195 804.50 1150Q787 1105 770 1067L519 546L924 546M1094 1232L1143 831L1652 831L1652 624L1169 624L1219 215L1788 215L1788 0L991 0L947 356L428 356L285 60Q272 33 246 16.50Q220 0 184 0L-20 0L715 1446L1788 1446L1788 1232L1094 1232Z"  horiz-adv-x="1866" vert-adv-y="2000"  />

      
      <glyph glyph-name="uni42" unicode="&#x42;" d="M702 210Q777 210 828 228Q879 246 909.50 276Q940 306 953.50 346Q967 386 967 431Q967 478 952 515.50Q937 553 905 579.50Q873 606 822.50 620Q772 634 701 634L430 634L430 210L702 210M430 1238L430 820L644 820Q782 820 852.50 870Q923 920 923 1029Q923 1142 859 1190Q795 1238 659 1238L430 1238M659 1446Q801 1446 902 1419Q1003 1392 1067.50 1342Q1132 1292 1162 1221Q1192 1150 1192 1061Q1192 1010 1177 963.50Q1162 917 1130.50 876.50Q1099 836 1050.50 803Q1002 770 935 747Q1233 680 1233 425Q1233 333 1198 255Q1163 177 1096 120.50Q1029 64 931 32Q833 0 707 0L161 0L161 1446L659 1446Z"  horiz-adv-x="1317" vert-adv-y="2000"  />

      
      <glyph glyph-name="uni43" unicode="&#x43;" d="M1154 341Q1176 341 1193 324L1299 209Q1211 100 1082.50 42Q954-16 774-16Q613-16 484.50 39Q356 94 265 192Q174 290 125.50 426Q77 562 77 723Q77 886 129 1021.50Q181 1157 275.50 1255Q370 1353 501 1407.50Q632 1462 791 1462Q949 1462 1071.50 1410Q1194 1358 1280 1274L1190 1149Q1182 1137 1169.50 1128Q1157 1119 1135 1119Q1120 1119 1104 1127.50Q1088 1136 1069 1148.50Q1050 1161 1025 1176Q1000 1191 967 1203.50Q934 1216 890.50 1224.50Q847 1233 790 1233Q693 1233 612.50 1198.50Q532 1164 474 1098.50Q416 1033 384 938.50Q352 844 352 723Q352 601 386.50 506Q421 411 480 346Q539 281 619 246.50Q699 212 791 212Q846 212 890.50 218Q935 224 972.50 237Q1010 250 1043.50 270.50Q1077 291 1110 321Q1120 330 1131 335.50Q1142 341 1154 341Z"  horiz-adv-x="1323" vert-adv-y="2000"  />

      
      <glyph glyph-name="unic7" unicode="&#xc7;" d="M1299 209Q1220 110 1107 53.50Q994-3 840-14L827-61Q921-83 959-120.50Q997-158 997-210Q997-244 979.50-271Q962-298 929.50-317Q897-336 852-346Q807-356 753-356Q712-356 676.50-350.50Q641-345 606-334L629-257Q635-234 658-234Q672-234 688.50-241.50Q705-249 737-249Q770-249 786.50-236.50Q803-224 803-206Q803-177 767-164.50Q731-152 656-141L700-13Q556 0 440.50 59.50Q325 119 244 216Q163 313 120 442Q77 571 77 723Q77 886 129 1021.50Q181 1157 275.50 1255Q370 1353 501 1407.50Q632 1462 791 1462Q949 1462 1071.50 1410Q1194 1358 1280 1274L1190 1149Q1182 1137 1169.50 1128Q1157 1119 1135 1119Q1120 1119 1104 1127.50Q1088 1136 1069 1148.50Q1050 1161 1025 1176Q1000 1191 967 1203.50Q934 1216 890.50 1224.50Q847 1233 790 1233Q693 1233 612.50 1198.50Q532 1164 474 1098.50Q416 1033 384 938.50Q352 844 352 723Q352 601 386.50 506Q421 411 480 346Q539 281 619 246.50Q699 212 791 212Q846 212 890.50 218Q935 224 972.50 237Q1010 250 1043.50 270.50Q1077 291 1110 321Q1120 330 1131 335.50Q1142 341 1154 341Q1176 341 1193 324L1299 209Z"  horiz-adv-x="1323" vert-adv-y="2000"  />

      
      <glyph glyph-name="uni44" unicode="&#x44;" d="M1445 723Q1445 564 1392 431Q1339 298 1243 202Q1147 106 1012 53Q877 0 712 0L161 0L161 1446L712 1446Q877 1446 1012 1392.50Q1147 1339 1243 1243.50Q1339 1148 1392 1015Q1445 882 1445 723M1169 723Q1169 842 1137.50 936.50Q1106 1031 1046.50 1096.50Q987 1162 902.50 1197Q818 1232 712 1232L431 1232L431 214L712 214Q818 214 902.50 249Q987 284 1046.50 349.50Q1106 415 1137.50 509.50Q1169 604 1169 723Z"  horiz-adv-x="1521" vert-adv-y="2000"  />

      
      <glyph glyph-name="unid0" unicode="&#xd0;" d="M731 214Q837 214 921.50 249Q1006 284 1065 349.50Q1124 415 1156 509.50Q1188 604 1188 723Q1188 842 1156 936.50Q1124 1031 1065 1096.50Q1006 1162 921.50 1197Q837 1232 731 1232L450 1232L450 804L716 804L716 651L450 651L450 214L731 214M731 1446Q896 1446 1031 1392.50Q1166 1339 1262 1243.50Q1358 1148 1411 1015Q1464 882 1464 723Q1464 564 1411 431Q1358 298 1262 202Q1166 106 1031 53Q896 0 731 0L180 0L180 651L-1 651L-1 804L180 804L180 1446L731 1446Z"  horiz-adv-x="1540" vert-adv-y="2000"  />

      
      <glyph glyph-name="uni45" unicode="&#x45;" d="M431 1232L431 831L937 831L937 624L431 624L431 215L1073 215L1073 0L161 0L161 1446L1073 1446L1073 1232L431 1232Z"  horiz-adv-x="1150" vert-adv-y="2000"  />

      
      <glyph glyph-name="uni0118" unicode="&#x0118;" d="M1082-294Q1049-316 999.50-330.50Q950-345 895-345Q797-345 744-304Q691-263 691-198Q691-143 727.50-92.50Q764-42 832 0L161 0L161 1446L1073 1446L1073 1232L431 1232L431 831L937 831L937 624L431 624L431 215L1073 215L1073 0L981 0Q961-11 942-25Q923-39 908-56.50Q893-74 884-94Q875-114 875-136Q875-166 894-183.50Q913-201 947-201Q966-201 978-199Q990-197 997.50-194Q1005-191 1010.50-189Q1016-187 1021-187Q1039-187 1044-203L1082-294Z"  horiz-adv-x="1150" vert-adv-y="2000"  />

      
      <glyph glyph-name="uni46" unicode="&#x46;" d="M431 1232L431 804L973 804L973 589L431 589L431 0L161 0L161 1446L1073 1446L1073 1232L431 1232Z"  horiz-adv-x="1132" vert-adv-y="2000"  />

      
      <glyph glyph-name="uni47" unicode="&#x47;" d="M1353 725L1353 140Q1243 59 1118.50 21.50Q994-16 852-16Q675-16 531.50 39Q388 94 286.50 192Q185 290 130 426Q75 562 75 723Q75 886 128 1022Q181 1158 278.50 1256Q376 1354 515 1408Q654 1462 827 1462Q915 1462 991.50 1448Q1068 1434 1133.50 1409.50Q1199 1385 1253 1350Q1307 1315 1352 1273L1275 1151Q1257 1122 1228 1115.50Q1199 1109 1165 1130Q1132 1149 1099 1168Q1066 1187 1025.50 1201Q985 1215 934.50 1224Q884 1233 818 1233Q711 1233 624.50 1197Q538 1161 477 1094Q416 1027 383 933Q350 839 350 723Q350 599 385.50 501.50Q421 404 485.50 336.50Q550 269 641 233.50Q732 198 844 198Q924 198 987 215Q1050 232 1110 261L1110 523L928 523Q902 523 887.50 537.50Q873 552 873 573L873 725L1353 725Z"  horiz-adv-x="1452" vert-adv-y="2000"  />

      
      <glyph glyph-name="uni48" unicode="&#x48;" d="M1380 1446L1380 0L1110 0L1110 632L431 632L431 0L161 0L161 1446L431 1446L431 824L1110 824L1110 1446L1380 1446Z"  horiz-adv-x="1541" vert-adv-y="2000"  />

      
      <glyph glyph-name="uni0126" unicode="&#x0126;" d="M1120 1036L441 1036L441 824L1120 824L1120 1036M1541 1036L1390 1036L1390 0L1120 0L1120 632L441 632L441 0L171 0L171 1036L20 1036L20 1193L171 1193L171 1446L441 1446L441 1193L1120 1193L1120 1446L1390 1446L1390 1193L1541 1193L1541 1036Z"  horiz-adv-x="1561" vert-adv-y="2000"  />

      
      <glyph glyph-name="uni49" unicode="&#x49;" d="M431 0L161 0L161 1446L431 1446L431 0Z"  horiz-adv-x="593" vert-adv-y="2000"  />

      
      <glyph glyph-name="uni012E" unicode="&#x012E;" d="M493-294Q460-316 410.50-330.50Q361-345 306-345Q208-345 155-304Q102-263 102-198Q102-143 138.50-92.50Q175-42 243 0L161 0L161 1446L431 1446L431 0L392 0Q372-11 353-25Q334-39 319-56.50Q304-74 295-94Q286-114 286-136Q286-166 305-183.50Q324-201 358-201Q377-201 389-199Q401-197 408.50-194Q416-191 421.50-189Q427-187 432-187Q450-187 455-203L493-294Z"  horiz-adv-x="593" vert-adv-y="2000"  />

      
      <glyph glyph-name="uni4a" unicode="&#x4a;" d="M712 514Q712 392 682 294Q652 196 592.50 127Q533 58 444 21Q355-16 237-16Q183-16 131-9.50Q79-3 22 11Q25 51 29 91Q33 131 36 171Q39 193 53.50 206.50Q68 220 95 220Q112 220 139.50 213Q167 206 209 206Q266 206 310 222.50Q354 239 383.50 275Q413 311 428 368.50Q443 426 443 508L443 1446L712 1446L712 514Z"  horiz-adv-x="859" vert-adv-y="2000"  />

      
      <glyph glyph-name="uni4b" unicode="&#x4b;" d="M430 840L493 840Q531 840 556 850.50Q581 861 599 884L998 1389Q1023 1421 1050.50 1433.50Q1078 1446 1120 1446L1352 1446L865 845Q822 790 776 767Q809 755 835.50 733.50Q862 712 886 677L1388 0L1151 0Q1103 0 1079.50 13.50Q1056 27 1040 53L631 587Q612 614 587 625Q562 636 515 636L430 636L430 0L161 0L161 1446L430 1446L430 840Z"  horiz-adv-x="1371" vert-adv-y="2000"  />

      
      <glyph glyph-name="uni4c" unicode="&#x4c;" d="M1008 222L1008 0L161 0L161 1446L430 1446L430 222L1008 222Z"  horiz-adv-x="1039" vert-adv-y="2000"  />

      
      <glyph glyph-name="uni0141" unicode="&#x0141;" d="M1040 222L1040 0L193 0L193 527L13 437L13 623Q13 657 43 671L193 749L193 1446L462 1446L462 870L820 1049L820 868Q820 827 786 814L462 646L462 222L1040 222Z"  horiz-adv-x="1071" vert-adv-y="2000"  />

      
      <glyph glyph-name="uni013D" unicode="&#x013D;" d="M1008 222L1008 0L161 0L161 1446L430 1446L430 222L1008 222M808 1488Q836 1488 842.50 1475.50Q849 1463 849 1451Q849 1442 845.50 1426.50Q842 1411 831.50 1381.50Q821 1352 802 1305.50Q783 1259 753 1187Q740 1158 720 1150Q700 1142 668 1142L580 1142L642 1488L808 1488Z"  horiz-adv-x="1039" vert-adv-y="2000"  />

      
      <glyph glyph-name="uni4d" unicode="&#x4d;" d="M1729 1446L1729 0L1492 0L1492 934Q1492 990 1498 1055L1061 234Q1030 175 966 175L928 175Q864 175 833 234L391 1058Q394 1025 396 993Q398 961 398 934L398 0L161 0L161 1446L364 1446Q382 1446 395 1445Q408 1444 418.50 1440Q429 1436 437.50 1427Q446 1418 454 1403L887 600Q904 568 918.50 534Q933 500 947 464Q961 501 976 535.50Q991 570 1008 602L1435 1403Q1443 1418 1452 1427Q1461 1436 1471.50 1440Q1482 1444 1495 1445Q1508 1446 1526 1446L1729 1446Z"  horiz-adv-x="1890" vert-adv-y="2000"  />

      
      <glyph glyph-name="uni4e" unicode="&#x4e;" d="M1380 1446L1380 0L1242 0Q1210 0 1188.50 10.50Q1167 21 1147 46L392 1010Q398 944 398 888L398 0L161 0L161 1446L302 1446Q319 1446 331.50 1444.50Q344 1443 353.50 1438.50Q363 1434 372 1425.50Q381 1417 392 1403L1150 435Q1147 470 1145 504Q1143 538 1143 567L1143 1446L1380 1446Z"  horiz-adv-x="1541" vert-adv-y="2000"  />

      
      <glyph glyph-name="uni014A" unicode="&#x014A;" d="M1380 1446L1380 39Q1380-48 1360-120.50Q1340-193 1296.50-245.50Q1253-298 1183.50-327.50Q1114-357 1016-357Q963-357 920.50-347.50Q878-338 829-317L856-210Q864-181 878.50-171.50Q893-162 910-162Q925-162 942.50-168Q960-174 993-174Q1068-174 1105.50-129Q1143-84 1143 11L1143 51L392 1010Q398 944 398 888L398 0L161 0L161 1446L302 1446Q319 1446 331.50 1444.50Q344 1443 353.50 1438.50Q363 1434 372 1425.50Q381 1417 392 1403L1150 435Q1147 470 1145 504Q1143 538 1143 567L1143 1446L1380 1446Z"  horiz-adv-x="1541" vert-adv-y="2000"  />

      
      <glyph glyph-name="uni4f" unicode="&#x4f;" d="M1540 723Q1540 564 1487.50 428.50Q1435 293 1339 194Q1243 95 1108 39.50Q973-16 808-16Q644-16 509 39.50Q374 95 277.50 194Q181 293 128 428.50Q75 564 75 723Q75 882 128 1017.50Q181 1153 277.50 1252Q374 1351 509 1406.50Q644 1462 808 1462Q918 1462 1015 1436.50Q1112 1411 1193 1364.50Q1274 1318 1338.50 1251.50Q1403 1185 1448 1103Q1493 1021 1516.50 925Q1540 829 1540 723M1265 723Q1265 842 1233 936.50Q1201 1031 1142 1097Q1083 1163 998.50 1198Q914 1233 808 1233Q702 1233 617.50 1198Q533 1163 473.50 1097Q414 1031 382 936.50Q350 842 350 723Q350 604 382 509.50Q414 415 473.50 349.50Q533 284 617.50 249Q702 214 808 214Q914 214 998.50 249Q1083 284 1142 349.50Q1201 415 1233 509.50Q1265 604 1265 723Z"  horiz-adv-x="1616" vert-adv-y="2000"  />

      
      <glyph glyph-name="unid8" unicode="&#xd8;" d="M592 260Q687 214 808 214Q914 214 998.50 249Q1083 284 1142 349.50Q1201 415 1233 509.50Q1265 604 1265 723Q1265 826 1241.50 910.50Q1218 995 1173 1059L592 260M1053 1171Q1002 1201 940.50 1217Q879 1233 808 1233Q702 1233 617.50 1198Q533 1163 473.50 1097Q414 1031 382 936.50Q350 842 350 723Q350 608 379 517Q408 426 464 360L1053 1171M1324 1266Q1427 1166 1483.50 1027.50Q1540 889 1540 723Q1540 564 1487.50 428.50Q1435 293 1339 194Q1243 95 1108 39.50Q973-16 808-16Q707-16 618 5Q529 26 451 66L375-39Q346-79 306-95Q266-111 227-111L121-111L316 157Q201 257 138 402Q75 547 75 723Q75 882 128 1017.50Q181 1153 277.50 1252Q374 1351 509 1406.50Q644 1462 808 1462Q919 1462 1015.50 1437Q1112 1412 1194 1364L1253 1446Q1266 1464 1277 1476.50Q1288 1489 1300 1497Q1312 1505 1327.50 1508.50Q1343 1512 1365 1512L1502 1512L1324 1266Z"  horiz-adv-x="1616" vert-adv-y="2000"  />

      
      <glyph glyph-name="uni0152" unicode="&#x0152;" d="M765 207Q860 207 936 243Q1012 279 1065 346Q1118 413 1146 508.50Q1174 604 1174 723Q1174 842 1146 937.50Q1118 1033 1065 1100.50Q1012 1168 936 1204Q860 1240 765 1240Q669 1240 592.50 1204Q516 1168 463 1100.50Q410 1033 381.50 937.50Q353 842 353 723Q353 604 381.50 508.50Q410 413 463 346Q516 279 592.50 243Q669 207 765 207M2086 215L2085 0L1206 0L1206 186Q1120 91 1001.50 38Q883-15 737-15Q589-15 467.50 40.50Q346 96 259 194.50Q172 293 124.50 428.50Q77 564 77 723Q77 882 124.50 1017.50Q172 1153 259 1252Q346 1351 467.50 1406.50Q589 1462 737 1462Q883 1462 1001.50 1409Q1120 1356 1206 1260L1206 1446L2085 1446L2085 1232L1444 1232L1444 831L1950 831L1950 624L1444 624L1444 215L2086 215Z"  horiz-adv-x="2163" vert-adv-y="2000"  />

      
      <glyph glyph-name="uni50" unicode="&#x50;" d="M631 719Q705 719 760 737.50Q815 756 851.50 790.50Q888 825 906 874.50Q924 924 924 985Q924 1043 906 1090Q888 1137 852 1170Q816 1203 761 1220.50Q706 1238 631 1238L430 1238L430 719L631 719M631 1446Q776 1446 882 1412Q988 1378 1057 1317Q1126 1256 1159.50 1171Q1193 1086 1193 985Q1193 880 1158 792.50Q1123 705 1053 642Q983 579 877.50 544Q772 509 631 509L430 509L430 0L161 0L161 1446L631 1446Z"  horiz-adv-x="1238" vert-adv-y="2000"  />

      
      <glyph glyph-name="unide" unicode="&#xde;" d="M631 471Q705 471 760 489.50Q815 508 851.50 542.50Q888 577 906 626.50Q924 676 924 737Q924 795 906 842Q888 889 852 922Q816 955 761 972.50Q706 990 631 990L430 990L430 471L631 471M631 1198Q776 1198 882 1164Q988 1130 1057 1069Q1126 1008 1159.50 923Q1193 838 1193 737Q1193 632 1158 544.50Q1123 457 1053 394Q983 331 877.50 296Q772 261 631 261L430 261L430 0L161 0L161 1446L430 1446L430 1198L631 1198Z"  horiz-adv-x="1231" vert-adv-y="2000"  />

      
      <glyph glyph-name="uni51" unicode="&#x51;" d="M351 723Q351 604 383 509.50Q415 415 474.50 349.50Q534 284 618.50 249Q703 214 809 214Q915 214 999.50 249Q1084 284 1143 349.50Q1202 415 1234 509.50Q1266 604 1266 723Q1266 842 1234 936.50Q1202 1031 1143 1097Q1084 1163 999.50 1198Q915 1233 809 1233Q703 1233 618.50 1198Q534 1163 474.50 1097Q415 1031 383 936.50Q351 842 351 723M1616-283L1394-283Q1346-283 1307.50-270Q1269-257 1237-222L1025 12Q974-2 920.50-9Q867-16 809-16Q645-16 510 39.50Q375 95 278.50 194Q182 293 129 428.50Q76 564 76 723Q76 882 129 1017.50Q182 1153 278.50 1252Q375 1351 510 1406.50Q645 1462 809 1462Q919 1462 1016 1436.50Q1113 1411 1194 1364.50Q1275 1318 1339.50 1251.50Q1404 1185 1449 1103Q1494 1021 1517.50 925Q1541 829 1541 723Q1541 626 1521 537.50Q1501 449 1463.50 372Q1426 295 1372 230.50Q1318 166 1249 117L1616-283Z"  horiz-adv-x="1616" vert-adv-y="2000"  />

      
      <glyph glyph-name="uni52" unicode="&#x52;" d="M598 758Q674 758 730.50 777Q787 796 823.50 829.50Q860 863 878 909Q896 955 896 1010Q896 1120 823.50 1179Q751 1238 602 1238L430 1238L430 758L598 758M1290 0L1047 0Q978 0 947 54L643 517Q626 543 605.50 554Q585 565 545 565L430 565L430 0L161 0L161 1446L602 1446Q749 1446 854.50 1415.50Q960 1385 1027.50 1330Q1095 1275 1127 1198.50Q1159 1122 1159 1030Q1159 957 1137.50 892Q1116 827 1075.50 774Q1035 721 975.50 681Q916 641 840 618Q866 603 888 582.50Q910 562 928 534L1290 0Z"  horiz-adv-x="1286" vert-adv-y="2000"  />

      
      <glyph glyph-name="uni53" unicode="&#x53;" d="M931 1183Q919 1162 905.50 1152.50Q892 1143 872 1143Q851 1143 826.50 1158.50Q802 1174 768 1193Q734 1212 688.50 1227.50Q643 1243 581 1243Q525 1243 483 1229.50Q441 1216 412.50 1192Q384 1168 370 1134.50Q356 1101 356 1061Q356 1010 384.50 976Q413 942 460 918Q507 894 567 875Q627 856 690 834.50Q753 813 813 784.50Q873 756 920 712.50Q967 669 995.50 606Q1024 543 1024 453Q1024 355 990.50 269.50Q957 184 892.50 120.50Q828 57 735 20.50Q642-16 522-16Q453-16 386-2.50Q319 11 257.50 36Q196 61 142 96Q88 131 46 174L125 303Q135 317 151 326.50Q167 336 185 336Q210 336 239 315.50Q268 295 308 270Q348 245 401.50 224.50Q455 204 530 204Q645 204 708 258.50Q771 313 771 415Q771 472 742.50 508Q714 544 667 568.50Q620 593 560 610Q500 627 438 647Q376 667 316 695Q256 723 209 768Q162 813 133.50 880.50Q105 948 105 1047Q105 1126 136.50 1201Q168 1276 228 1334Q288 1392 376 1427Q464 1462 578 1462Q706 1462 814 1422Q922 1382 998 1310L931 1183Z"  horiz-adv-x="1097" vert-adv-y="2000"  />

      
      <glyph glyph-name="uni015E" unicode="&#x015E;" d="M931 1183Q919 1162 905.50 1152.50Q892 1143 872 1143Q851 1143 826.50 1158.50Q802 1174 768 1193Q734 1212 688.50 1227.50Q643 1243 581 1243Q525 1243 483 1229.50Q441 1216 412.50 1192Q384 1168 370 1134.50Q356 1101 356 1061Q356 1010 384.50 976Q413 942 460 918Q507 894 567 875Q627 856 690 834.50Q753 813 813 784.50Q873 756 920 712.50Q967 669 995.50 606Q1024 543 1024 453Q1024 366 997.50 288.50Q971 211 920 150Q869 89 794.50 48Q720 7 624-8L609-61Q703-83 741-120.50Q779-158 779-210Q779-244 761.50-271Q744-298 711.50-317Q679-336 634-346Q589-356 535-356Q494-356 458.50-350.50Q423-345 388-334L411-257Q417-234 440-234Q454-234 470.50-241.50Q487-249 519-249Q552-249 568.50-236.50Q585-224 585-206Q585-177 549-164.50Q513-152 438-141L481-15Q418-11 356.50 4Q295 19 239 43.50Q183 68 134 101Q85 134 46 174L125 303Q135 317 151 326.50Q167 336 185 336Q210 336 239 315.50Q268 295 308 270Q348 245 401.50 224.50Q455 204 530 204Q645 204 708 258.50Q771 313 771 415Q771 472 742.50 508Q714 544 667 568.50Q620 593 560 610Q500 627 438 647Q376 667 316 695Q256 723 209 768Q162 813 133.50 880.50Q105 948 105 1047Q105 1126 136.50 1201Q168 1276 228 1334Q288 1392 376 1427Q464 1462 578 1462Q706 1462 814 1422Q922 1382 998 1310L931 1183Z"  horiz-adv-x="1097" vert-adv-y="2000"  />

      
      <glyph glyph-name="uni54" unicode="&#x54;" d="M1171 1225L735 1225L735 0L466 0L466 1225L30 1225L30 1446L1171 1446L1171 1225Z"  horiz-adv-x="1200" vert-adv-y="2000"  />

      
      <glyph glyph-name="uni0166" unicode="&#x0166;" d="M747 1225L747 853L1060 853L1060 700L747 700L747 0L478 0L478 700L165 700L165 853L478 853L478 1225L42 1225L42 1446L1183 1446L1183 1225L747 1225Z"  horiz-adv-x="1225" vert-adv-y="2000"  />

      
      <glyph glyph-name="uni55" unicode="&#x55;" d="M743 217Q821 217 882.50 243Q944 269 986 316Q1028 363 1050.50 430Q1073 497 1073 580L1073 1446L1342 1446L1342 580Q1342 451 1300.50 341.50Q1259 232 1181.50 152.50Q1104 73 993 28.50Q882-16 743-16Q603-16 492 28.50Q381 73 303.50 152.50Q226 232 184.50 341.50Q143 451 143 580L143 1446L412 1446L412 581Q412 498 434.50 431Q457 364 499.50 316.50Q542 269 603.50 243Q665 217 743 217Z"  horiz-adv-x="1485" vert-adv-y="2000"  />

      
      <glyph glyph-name="uni0172" unicode="&#x0172;" d="M1342 1446L1342 580Q1342 464 1309 364.50Q1276 265 1213.50 188Q1151 111 1061 60.50Q971 10 857-8Q838-19 821-32.50Q804-46 790.50-62.50Q777-79 769-98Q761-117 761-138Q761-168 780-185.50Q799-203 833-203Q852-203 864-201Q876-199 883.50-196Q891-193 896.50-191Q902-189 907-189Q925-189 930-205L968-296Q935-318 885.50-332.50Q836-347 781-347Q683-347 630-306Q577-265 577-200Q577-149 608.50-101.50Q640-54 698-15Q569-8 466 39.50Q363 87 291 166Q219 245 181 350.50Q143 456 143 580L143 1446L412 1446L412 581Q412 498 434.50 431Q457 364 499.50 316.50Q542 269 603.50 243Q665 217 743 217Q821 217 882.50 243Q944 269 986 316Q1028 363 1050.50 430Q1073 497 1073 580L1073 1446L1342 1446Z"  horiz-adv-x="1485" vert-adv-y="2000"  />

      
      <glyph glyph-name="uni56" unicode="&#x56;" d="M1400 1446L816 0L573 0L-11 1446L205 1446Q240 1446 262 1429Q284 1412 295 1385L636 503Q653 460 668.50 408.50Q684 357 698 301Q710 357 724 408.50Q738 460 755 503L1094 1385Q1102 1408 1125.50 1427Q1149 1446 1183 1446L1400 1446Z"  horiz-adv-x="1389" vert-adv-y="2000"  />

      
      <glyph glyph-name="uni57" unicode="&#x57;" d="M2085 1446L1636 0L1393 0L1077 988Q1064 1024 1053 1076Q1047 1051 1041 1029Q1035 1007 1028 988L709 0L465 0L17 1446L242 1446Q277 1446 300.50 1429.50Q324 1413 332 1385L578 520Q586 488 593.50 450.50Q601 413 609 372Q617 414 626.50 451Q636 488 647 520L931 1385Q939 1408 962.50 1427Q986 1446 1020 1446L1099 1446Q1134 1446 1156 1429Q1178 1412 1189 1385L1472 520Q1493 458 1510 377Q1523 456 1539 520L1785 1385Q1791 1410 1815.50 1428Q1840 1446 1874 1446L2085 1446Z"  horiz-adv-x="2102" vert-adv-y="2000"  />

      
      <glyph glyph-name="uni58" unicode="&#x58;" d="M1336 0L1068 0Q1040 0 1023.50 14Q1007 28 997 46L662 601Q654 576 643 558L322 46Q310 29 294.50 14.50Q279 0 254 0L3 0L483 744L22 1446L290 1446Q318 1446 330.50 1438.50Q343 1431 354 1414L683 884Q693 909 707 934L1009 1409Q1020 1428 1033 1437Q1046 1446 1066 1446L1323 1446L858 755L1336 0Z"  horiz-adv-x="1341" vert-adv-y="2000"  />

      
      <glyph glyph-name="uni59" unicode="&#x59;" d="M782 560L782 0L514 0L514 560L-13 1446L224 1446Q259 1446 279.50 1429Q300 1412 314 1386L578 903Q601 860 618.50 822Q636 784 650 746Q663 784 680 822Q697 860 719 903L982 1386Q993 1408 1015 1427Q1037 1446 1071 1446L1309 1446L782 560Z"  horiz-adv-x="1296" vert-adv-y="2000"  />

      
      <glyph glyph-name="uni5a" unicode="&#x5a;" d="M1157 1347Q1157 1301 1131 1263L389 215L1140 215L1140 0L40 0L40 106Q40 126 47 144.50Q54 163 65 179L809 1232L87 1232L87 1446L1157 1446L1157 1347Z"  horiz-adv-x="1211" vert-adv-y="2000"  />

      
      <glyph glyph-name="uni61" unicode="&#x61;" d="M664 438Q557 433 484 419.50Q411 406 367 385Q323 364 304 336Q285 308 285 275Q285 210 323.50 182Q362 154 424 154Q500 154 555.50 181.50Q611 209 664 265L664 438M98 883Q275 1045 524 1045Q614 1045 685 1015.50Q756 986 805 933.50Q854 881 879.50 808Q905 735 905 648L905 0L793 0Q758 0 739 10.50Q720 21 709 53L687 127Q648 92 611 65.50Q574 39 534 21Q494 3 448.50-6.50Q403-16 348-16Q283-16 228 1.50Q173 19 133 54Q93 89 71 141Q49 193 49 262Q49 301 62 339.50Q75 378 104.50 413Q134 448 181 479Q228 510 296.50 533Q365 556 456 570.50Q547 585 664 588L664 648Q664 751 620 800.50Q576 850 493 850Q433 850 393.50 836Q354 822 324 804.50Q294 787 269.50 773Q245 759 215 759Q189 759 171 772.50Q153 786 142 804L98 883Z"  horiz-adv-x="1015" vert-adv-y="2000"  />

      
      <glyph glyph-name="uni0105" unicode="&#x0105;" d="M664 438Q557 433 484 419.50Q411 406 367 385Q323 364 304 336Q285 308 285 275Q285 210 323.50 182Q362 154 424 154Q500 154 555.50 181.50Q611 209 664 265L664 438M1006-294Q973-316 923.50-330.50Q874-345 819-345Q721-345 668-304Q615-263 615-198Q615-142 653-90.50Q691-39 761 3Q741 7 729 18.50Q717 30 709 53L687 127Q648 92 611 65.50Q574 39 534 21Q494 3 448.50-6.50Q403-16 348-16Q283-16 228 1.50Q173 19 133 54Q93 89 71 141Q49 193 49 262Q49 301 62 339.50Q75 378 104.50 413Q134 448 181 479Q228 510 296.50 533Q365 556 456 570.50Q547 585 664 588L664 648Q664 751 620 800.50Q576 850 493 850Q433 850 393.50 836Q354 822 324 804.50Q294 787 269.50 773Q245 759 215 759Q189 759 171 772.50Q153 786 142 804L98 883Q275 1045 524 1045Q614 1045 685 1015.50Q756 986 805 933.50Q854 881 879.50 808Q905 735 905 648L905 0Q885-11 866-25Q847-39 832-56.50Q817-74 808-94Q799-114 799-136Q799-166 818-183.50Q837-201 871-201Q890-201 902-199Q914-197 921.50-194Q929-191 934.50-189Q940-187 945-187Q963-187 968-203L1006-294Z"  horiz-adv-x="1015" vert-adv-y="2000"  />

      
      <glyph glyph-name="unie6" unicode="&#xe6;" d="M666 462Q559 457 486.50 441.50Q414 426 370 403Q326 380 307 350Q288 320 288 287Q288 218 326.50 186Q365 154 434 154Q483 154 525.50 169Q568 184 599 215.50Q630 247 648 297Q666 347 666 416L666 462M1334 611Q1334 660 1322 706Q1310 752 1285 787.50Q1260 823 1222.50 844Q1185 865 1134 865Q1030 865 972.50 798.50Q915 732 901 611L1334 611M900 462Q914 315 983.50 245.50Q1053 176 1162 176Q1230 176 1273 189Q1316 202 1344 218Q1372 234 1390.50 247Q1409 260 1430 260Q1466 260 1480 237L1547 153Q1506 105 1456.50 72.50Q1407 40 1354 20.50Q1301 1 1246-7Q1191-15 1139-15Q1030-15 935.50 34Q841 83 780 187Q750 133 705.50 95Q661 57 608 32Q555 7 495-4.50Q435-16 374-16Q300-16 240 3Q180 22 138 58.50Q96 95 73.50 149.50Q51 204 51 275Q51 314 64 353Q77 392 106.50 429Q136 466 183 498Q230 530 298.50 555Q367 580 458 595Q549 610 666 613L666 648Q666 751 622 804Q578 857 495 857Q435 857 395.50 841.50Q356 826 326 808Q296 790 271.50 774.50Q247 759 217 759Q191 759 173 772.50Q155 786 144 804L100 883Q189 964 285.50 1004.50Q382 1045 500 1045Q616 1045 690 1001Q764 957 802 880Q859 955 944 998.50Q1029 1042 1144 1042Q1231 1042 1306 1008.50Q1381 975 1436 912Q1491 849 1522.50 759Q1554 669 1554 557Q1554 529 1551.50 510.50Q1549 492 1543 481.50Q1537 471 1526.50 466.50Q1516 462 1499 462L900 462Z"  horiz-adv-x="1619" vert-adv-y="2000"  />

      
      <glyph glyph-name="uni62" unicode="&#x62;" d="M369 266Q411 215 460.50 194Q510 173 565 173Q622 173 667.50 193.50Q713 214 745 257.50Q777 301 794 368.50Q811 436 811 530Q811 699 755 774.50Q699 850 594 850Q523 850 470 817.50Q417 785 369 726L369 266M369 900Q431 965 506.50 1003.50Q582 1042 679 1042Q768 1042 839.50 1007Q911 972 961.50 906.50Q1012 841 1039 748Q1066 655 1066 539Q1066 414 1035 312Q1004 210 946.50 137.50Q889 65 808 25Q727-15 628-15Q580-15 541-5.50Q502 4 469 21Q436 38 408.50 62.50Q381 87 356 117L345 48Q339 22 324.50 11Q310 0 285 0L122 0L122 1486L369 1486L369 900Z"  horiz-adv-x="1135" vert-adv-y="2000"  />

      
      <glyph glyph-name="uni63" unicode="&#x63;" d="M857 809Q846 795 835.50 787Q825 779 805 779Q786 779 768 790.50Q750 802 725 816.50Q700 831 665.50 842.50Q631 854 580 854Q515 854 466 830.50Q417 807 384.50 763Q352 719 336 656.50Q320 594 320 515Q320 433 337.50 369Q355 305 388 261.50Q421 218 468 195.50Q515 173 574 173Q633 173 669.50 187.50Q706 202 731 219.50Q756 237 774.50 251.50Q793 266 816 266Q846 266 861 243L932 153Q891 105 843 72.50Q795 40 743.50 20.50Q692 1 637.50-7Q583-15 529-15Q434-15 350 20.50Q266 56 203 124Q140 192 103.50 290.50Q67 389 67 515Q67 628 99.50 724.50Q132 821 195 891.50Q258 962 351 1002Q444 1042 565 1042Q680 1042 766.50 1005Q853 968 922 899L857 809Z"  horiz-adv-x="964" vert-adv-y="2000"  />

      
      <glyph glyph-name="unie7" unicode="&#xe7;" d="M932 153Q864 73 778.50 35.50Q693-2 602-11L589-61Q683-83 720.50-120.50Q758-158 758-210Q758-244 740.50-271Q723-298 690.50-317Q658-336 613.50-346Q569-356 515-356Q474-356 438-350.50Q402-345 368-334L390-257Q396-234 419-234Q433-234 450-241.50Q467-249 499-249Q532-249 548.50-236.50Q565-224 565-206Q565-177 529-164.50Q493-152 418-141L462-10Q378 2 306 42.50Q234 83 181 149.50Q128 216 97.50 308Q67 400 67 515Q67 628 99.50 724.50Q132 821 195 891.50Q258 962 351 1002Q444 1042 565 1042Q680 1042 766.50 1005Q853 968 922 899L857 809Q846 795 835.50 787Q825 779 805 779Q786 779 768 790.50Q750 802 725 816.50Q700 831 665.50 842.50Q631 854 580 854Q515 854 466 830.50Q417 807 384.50 763Q352 719 336 656.50Q320 594 320 515Q320 433 337.50 369Q355 305 388 261.50Q421 218 468 195.50Q515 173 574 173Q633 173 669.50 187.50Q706 202 731 219.50Q756 237 774.50 251.50Q793 266 816 266Q846 266 861 243L932 153Z"  horiz-adv-x="966" vert-adv-y="2000"  />

      
      <glyph glyph-name="uni64" unicode="&#x64;" d="M766 764Q724 815 674.50 836Q625 857 568 857Q512 857 467 836Q422 815 390 772.50Q358 730 341 664.50Q324 599 324 510Q324 420 338.50 357.50Q353 295 380 255.50Q407 216 446 198.50Q485 181 533 181Q610 181 664 213Q718 245 766 304L766 764M1013 1486L1013 0L862 0Q813 0 800 45L779 144Q717 73 636.50 29Q556-15 449-15Q365-15 295 20Q225 55 174.50 121.50Q124 188 96.50 286Q69 384 69 510Q69 624 100 722Q131 820 189 892Q247 964 328 1004.50Q409 1045 510 1045Q596 1045 657 1018Q718 991 766 945L766 1486L1013 1486Z"  horiz-adv-x="1135" vert-adv-y="2000"  />

      
      <glyph glyph-name="uni010F" unicode="&#x010F;" d="M766 764Q724 815 674.50 836Q625 857 568 857Q512 857 467 836Q422 815 390 772.50Q358 730 341 664.50Q324 599 324 510Q324 420 338.50 357.50Q353 295 380 255.50Q407 216 446 198.50Q485 181 533 181Q610 181 664 213Q718 245 766 304L766 764M1013 1486L1013 0L862 0Q813 0 800 45L779 144Q717 73 636.50 29Q556-15 449-15Q365-15 295 20Q225 55 174.50 121.50Q124 188 96.50 286Q69 384 69 510Q69 624 100 722Q131 820 189 892Q247 964 328 1004.50Q409 1045 510 1045Q596 1045 657 1018Q718 991 766 945L766 1486L1013 1486M1318 1488Q1346 1488 1352.50 1475.50Q1359 1463 1359 1451Q1359 1442 1355.50 1426.50Q1352 1411 1341.50 1381.50Q1331 1352 1312 1305.50Q1293 1259 1263 1187Q1250 1158 1230 1150Q1210 1142 1178 1142L1090 1142L1152 1488L1318 1488Z"  horiz-adv-x="1135" vert-adv-y="2000"  />

      
      <glyph glyph-name="uni0111" unicode="&#x0111;" d="M767 735Q725 786 675.50 806Q626 826 569 826Q513 826 468 807.50Q423 789 391.50 749Q360 709 343 646Q326 583 326 494Q326 404 340.50 344Q355 284 382 248Q409 212 447.50 196.50Q486 181 534 181Q611 181 665.50 212.50Q720 244 767 303L767 735M1158 1131L1015 1131L1015 0L863 0Q814 0 801 45L781 144Q718 73 637.50 29Q557-15 450-15Q366-15 296.50 17.50Q227 50 176.50 114Q126 178 98.50 273Q71 368 71 494Q71 609 102 704.50Q133 800 190.50 869Q248 938 329.50 976.50Q411 1015 512 1015Q598 1015 658.50 988Q719 961 767 915L767 1131L541 1131L541 1284L767 1284L767 1486L1015 1486L1015 1284L1158 1284L1158 1131Z"  horiz-adv-x="1136" vert-adv-y="2000"  />

      
      <glyph glyph-name="unif0" unicode="&#xf0;" d="M557 173Q615 173 664 194Q713 215 749 261.50Q785 308 807 382.50Q829 457 832 563Q816 600 792.50 633Q769 666 737 690.50Q705 715 664 729Q623 743 571 743Q507 743 458 722Q409 701 376 664Q343 627 326 578Q309 529 309 472Q309 399 328.50 343.50Q348 288 381.50 250Q415 212 460.50 192.50Q506 173 557 173M815 1215Q872 1165 918 1102.50Q964 1040 996.50 964.50Q1029 889 1046.50 800Q1064 711 1064 608Q1064 461 1030.50 345.50Q997 230 932 149.50Q867 69 771 27Q675-15 551-15Q447-15 358 18.50Q269 52 204 115Q139 178 101.50 268.50Q64 359 64 474Q64 566 96.50 649Q129 732 188.50 794.50Q248 857 332.50 894Q417 931 521 931Q712 931 834 797Q813 903 763.50 979Q714 1055 628 1112L431 984L384 1062Q369 1085 375 1107Q381 1129 406 1143L481 1187Q415 1211 339 1232Q323 1236 310 1245.50Q297 1255 289.50 1269.50Q282 1284 281.50 1303.50Q281 1323 290 1347L318 1432Q419 1415 512.50 1384Q606 1353 690 1305L865 1418L914 1338Q928 1316 922 1295.50Q916 1275 895 1261L815 1215Z"  horiz-adv-x="1141" vert-adv-y="2000"  />

      
      <glyph glyph-name="uni65" unicode="&#x65;" d="M783 631Q783 679 769.50 721.50Q756 764 729 796Q702 828 660.50 846.50Q619 865 564 865Q457 865 395.50 804Q334 743 317 631L783 631M312 482Q318 403 340 345.50Q362 288 398 250.50Q434 213 483.50 194.50Q533 176 593 176Q653 176 696.50 190Q740 204 772.50 221Q805 238 829.50 252Q854 266 877 266Q908 266 923 243L994 153Q953 105 902 72.50Q851 40 795.50 20.50Q740 1 682.50-7Q625-15 571-15Q464-15 372 20.50Q280 56 212 125.50Q144 195 105 297.50Q66 400 66 535Q66 640 100 732.50Q134 825 197.50 893.50Q261 962 352.50 1002Q444 1042 559 1042Q656 1042 738 1011Q820 980 879 920.50Q938 861 971.50 774.50Q1005 688 1005 577Q1005 521 993 501.50Q981 482 947 482L312 482Z"  horiz-adv-x="1068" vert-adv-y="2000"  />

      
      <glyph glyph-name="uni0119" unicode="&#x0119;" d="M783 631Q783 679 769.50 721.50Q756 764 729 796Q702 828 660.50 846.50Q619 865 564 865Q457 865 395.50 804Q334 743 317 631L783 631M312 482Q318 403 340 345.50Q362 288 398 250.50Q434 213 483.50 194.50Q533 176 593 176Q653 176 696.50 190Q740 204 772.50 221Q805 238 829.50 252Q854 266 877 266Q908 266 923 243L994 153Q934 83 855 46Q776 9 693-5Q674-16 656.50-30Q639-44 625.50-60.50Q612-77 604-96Q596-115 596-136Q596-166 615-183.50Q634-201 668-201Q687-201 699-199Q711-197 718.50-194Q726-191 731.50-189Q737-187 742-187Q760-187 765-203L803-294Q770-316 720.50-330.50Q671-345 616-345Q518-345 465-304Q412-263 412-198Q412-147 443-100Q474-53 532-14Q432-8 347 30.50Q262 69 199.50 138.50Q137 208 101.50 307.50Q66 407 66 535Q66 640 100 732.50Q134 825 197.50 893.50Q261 962 352.50 1002Q444 1042 559 1042Q656 1042 738 1011Q820 980 879 920.50Q938 861 971.50 774.50Q1005 688 1005 577Q1005 521 993 501.50Q981 482 947 482L312 482Z"  horiz-adv-x="1068" vert-adv-y="2000"  />

      
      <glyph glyph-name="uni66" unicode="&#x66;" d="M194 0L194 840L105 854Q76 860 58.50 874.50Q41 889 41 916L41 1017L194 1017L194 1093Q194 1181 220.50 1251Q247 1321 296.50 1370Q346 1419 417 1445Q488 1471 577 1471Q648 1471 709 1452L704 1328Q703 1314 696 1305.50Q689 1297 677.50 1292.50Q666 1288 651 1286.50Q636 1285 619 1285Q575 1285 540.50 1275.50Q506 1266 482 1242.50Q458 1219 445.50 1180.50Q433 1142 433 1085L433 1017L700 1017L700 841L441 841L441 0L194 0Z"  horiz-adv-x="717" vert-adv-y="2000"  />

      
      <glyph glyph-name="uniFB00" unicode="&#xFB00;" d="M194 0L194 840L105 854Q76 860 58.50 874.50Q41 889 41 916L41 1017L194 1017L194 1075Q194 1163 220.50 1233Q247 1303 296.50 1352Q346 1401 417 1427Q488 1453 577 1453Q648 1453 709 1434L704 1311Q703 1297 696 1288Q689 1279 677.50 1274.50Q666 1270 651 1268.50Q636 1267 619 1267Q575 1267 540.50 1257.50Q506 1248 482 1224.50Q458 1201 445.50 1162.50Q433 1124 433 1067L433 1017L842 1017L842 1108Q842 1196 868.50 1266Q895 1336 944.50 1385Q994 1434 1065 1460Q1136 1486 1225 1486Q1260 1486 1292.50 1481.50Q1325 1477 1357 1468L1351 1344Q1349 1315 1324.50 1307.50Q1300 1300 1267 1300Q1223 1300 1188.50 1290.50Q1154 1281 1130 1257.50Q1106 1234 1093.50 1195.50Q1081 1157 1081 1100L1081 1017L1347 1017L1347 841L1089 841L1089 0L842 0L842 841L441 841L441 0L194 0Z"  horiz-adv-x="1365" vert-adv-y="2000"  />

      
      <glyph glyph-name="uniFB01" unicode="&#xFB01;" d="M195 0L195 840L106 854Q77 860 59.50 874.50Q42 889 42 916L42 1017L195 1017L195 1050Q195 1144 226 1224.50Q257 1305 320 1364Q383 1423 479.50 1456.50Q576 1490 707 1490Q749 1490 792.50 1485.50Q836 1481 868 1471L860 1343Q858 1320 835 1315.50Q812 1311 778 1311Q681 1311 615.50 1294Q550 1277 509.50 1243.50Q469 1210 451.50 1159.50Q434 1109 434 1042L434 1017L1070 1017L1070 0L823 0L823 841L442 841L442 0L195 0Z"  horiz-adv-x="1201" vert-adv-y="2000"  />

      
      <glyph glyph-name="uniFB03" unicode="&#xFB03;" d="M195 0L195 840L106 854Q77 860 59.50 874.50Q42 889 42 916L42 1017L195 1017L195 1075Q195 1163 221.50 1233Q248 1303 297.50 1352Q347 1401 418 1427Q489 1453 578 1453Q648 1453 709 1434L704 1311Q702 1282 677.50 1274.50Q653 1267 620 1267Q576 1267 541.50 1257.50Q507 1248 483 1224.50Q459 1201 446.50 1162.50Q434 1124 434 1067L434 1017L842 1017L842 1050Q842 1144 873 1224.50Q904 1305 967 1364Q1030 1423 1126.50 1456.50Q1223 1490 1354 1490Q1396 1490 1440 1485.50Q1484 1481 1516 1471L1508 1343Q1506 1320 1483 1315.50Q1460 1311 1426 1311Q1329 1311 1263.50 1294Q1198 1277 1157.50 1243.50Q1117 1210 1099.50 1159.50Q1082 1109 1082 1042L1082 1017L1718 1017L1718 0L1471 0L1471 841L1090 841L1090 0L842 0L842 841L442 841L442 0L195 0Z"  horiz-adv-x="1849" vert-adv-y="2000"  />

      
      <glyph glyph-name="uniFB02" unicode="&#xFB02;" d="M195 0L195 840L106 854Q77 860 59.50 874.50Q42 889 42 916L42 1017L195 1017L195 1060Q195 1142 221 1217Q247 1292 300 1349.50Q353 1407 434 1441.50Q515 1476 625 1476Q710 1476 785.50 1470.50Q861 1465 936 1464L1099 1464L1099 0L853 0L853 1292Q800 1294 749.50 1297Q699 1300 664 1300Q552 1300 493 1237.50Q434 1175 434 1060L434 1017L677 1017L677 841L442 841L442 0L195 0Z"  horiz-adv-x="1224" vert-adv-y="2000"  />

      
      <glyph glyph-name="uniFB04" unicode="&#xFB04;" d="M194 0L194 840L105 854Q76 860 58.50 874.50Q41 889 41 916L41 1017L194 1017L194 1075Q194 1163 220.50 1233Q247 1303 296.50 1352Q346 1401 417 1427Q488 1453 577 1453Q648 1453 709 1434L704 1311Q703 1297 696 1288Q689 1279 677.50 1274.50Q666 1270 651 1268.50Q636 1267 619 1267Q575 1267 540.50 1257.50Q506 1248 482 1224.50Q458 1201 445.50 1162.50Q433 1124 433 1067L433 1017L842 1017L842 1060Q842 1142 868 1217Q894 1292 947 1349.50Q1000 1407 1081 1441.50Q1162 1476 1272 1476Q1363 1476 1445 1470Q1527 1464 1608 1464L1746 1464L1746 0L1500 0L1500 1292Q1447 1294 1396.50 1297Q1346 1300 1311 1300Q1199 1300 1140 1237.50Q1081 1175 1081 1060L1081 1017L1347 1017L1347 841L1089 841L1089 0L842 0L842 841L441 841L441 0L194 0Z"  horiz-adv-x="1871" vert-adv-y="2000"  />

      
      <glyph glyph-name="uni67" unicode="&#x67;" d="M497 538Q543 538 577 550.50Q611 563 633.50 585Q656 607 667.50 638Q679 669 679 706Q679 782 633.50 826.50Q588 871 497 871Q406 871 360.50 826.50Q315 782 315 706Q315 670 326.50 639Q338 608 360.50 585.50Q383 563 417.50 550.50Q452 538 497 538M776-46Q776-16 758 3Q740 22 709 32.50Q678 43 636.50 48Q595 53 548.50 55.50Q502 58 452.50 60Q403 62 356 68Q315 45 289.50 14Q264-17 264-58Q264-85 277.50-108.50Q291-132 320.50-149Q350-166 397-175.50Q444-185 512-185Q581-185 631-174.50Q681-164 713.50-145.50Q746-127 761-101.50Q776-76 776-46M1022 991L1022 899Q1022 855 969 845L877 828Q898 775 898 712Q898 636 867.50 574.50Q837 513 783 470Q729 427 655.50 403.50Q582 380 497 380Q467 380 439 383Q411 386 384 391Q336 362 336 326Q336 295 364.50 280.50Q393 266 440 260Q487 254 547 252.50Q607 251 670 246Q733 241 793 228.50Q853 216 900 189Q947 162 975.50 115.50Q1004 69 1004-4Q1004-72 970.50-136Q937-200 873.50-250Q810-300 717.50-330.50Q625-361 507-361Q391-361 305-338.50Q219-316 162-278.50Q105-241 77-192Q49-143 49-90Q49-18 92.50 30.50Q136 79 212 108Q171 129 147 164Q123 199 123 256Q123 279 131.50 303.50Q140 328 156.50 352Q173 376 198 397.50Q223 419 257 436Q179 478 134.50 548Q90 618 90 712Q90 788 120.50 849.50Q151 911 205.50 954.50Q260 998 334.50 1021Q409 1044 497 1044Q563 1044 621 1030.50Q679 1017 727 991L1022 991Z"  horiz-adv-x="1056" vert-adv-y="2000"  />

      
      <glyph glyph-name="uni68" unicode="&#x68;" d="M369 916Q429 972 501 1007Q573 1042 670 1042Q754 1042 819 1013.50Q884 985 927.50 933.50Q971 882 993.50 810.50Q1016 739 1016 653L1016 0L769 0L769 653Q769 747 726 798.50Q683 850 595 850Q531 850 475 821Q419 792 369 742L369 0L122 0L122 1486L369 1486L369 916Z"  horiz-adv-x="1128" vert-adv-y="2000"  />

      
      <glyph glyph-name="uni0125" unicode="&#x0125;" d="M369 916Q429 972 501 1007Q573 1042 670 1042Q754 1042 819 1013.50Q884 985 927.50 933.50Q971 882 993.50 810.50Q1016 739 1016 653L1016 0L769 0L769 653Q769 747 726 798.50Q683 850 595 850Q531 850 475 821Q419 792 369 742L369 0L122 0L122 1486L369 1486L369 916M597 1549L418 1549Q403 1549 381.50 1554.50Q360 1560 337 1587L255 1693Q245 1707 240 1715Q235 1707 225 1693L143 1587Q120 1560 98.50 1554.50Q77 1549 62 1549L-109 1549L132 1824L356 1824L597 1549Z"  horiz-adv-x="1128" vert-adv-y="2000"  />

      
      <glyph glyph-name="uni0127" unicode="&#x0127;" d="M369 885Q429 941 501 976Q573 1011 670 1011Q754 1011 818.50 982.50Q883 954 926.50 902.50Q970 851 992.50 779.50Q1015 708 1015 622L1015 0L768 0L768 622Q768 716 725 767.50Q682 819 595 819Q531 819 475 790Q419 761 369 711L369 0L122 0L122 1138L-22 1138L-22 1291L122 1291L122 1486L369 1486L369 1291L650 1291L650 1138L369 1138L369 885Z"  horiz-adv-x="1128" vert-adv-y="2000"  />

      
      <glyph glyph-name="uni69" unicode="&#x69;" d="M378 1026L378 0L130 0L130 1026L378 1026M412 1325Q412 1293 399 1265Q386 1237 364.50 1216Q343 1195 314 1182.50Q285 1170 252 1170Q220 1170 191.50 1182.50Q163 1195 142 1216Q121 1237 108.50 1265Q96 1293 96 1325Q96 1358 108.50 1387Q121 1416 142 1437Q163 1458 191.50 1470.50Q220 1483 252 1483Q285 1483 314 1470.50Q343 1458 364.50 1437Q386 1416 399 1387Q412 1358 412 1325Z"  horiz-adv-x="508" vert-adv-y="2000"  />

      
      <glyph glyph-name="uni012F" unicode="&#x012F;" d="M252 1170Q220 1170 191.50 1182.50Q163 1195 142 1216Q121 1237 108.50 1265Q96 1293 96 1325Q96 1358 108.50 1387Q121 1416 142 1437Q163 1458 191.50 1470.50Q220 1483 252 1483Q285 1483 314 1470.50Q343 1458 364.50 1437Q386 1416 399 1387Q412 1358 412 1325Q412 1293 399 1265Q386 1237 364.50 1216Q343 1195 314 1182.50Q285 1170 252 1170M457-294Q424-316 374.50-330.50Q325-345 270-345Q172-345 119-304Q66-263 66-198Q66-143 102.50-92.50Q139-42 207 0L130 0L130 1026L378 1026L378 0L356 0Q336-11 317-25Q298-39 283-56.50Q268-74 259-94Q250-114 250-136Q250-166 269-183.50Q288-201 322-201Q341-201 353-199Q365-197 372.50-194Q380-191 385.50-189Q391-187 396-187Q414-187 419-203L457-294Z"  horiz-adv-x="508" vert-adv-y="2000"  />

      
      <glyph glyph-name="uni0131" unicode="&#x0131;" d="M378 1026L378 0L131 0L131 1026L378 1026Z"  horiz-adv-x="510" vert-adv-y="2000"  />

      
      <glyph glyph-name="uni6a" unicode="&#x6a;" d="M378 1026L378-35Q378-102 360.50-161Q343-220 304.50-264.50Q266-309 203.50-334.50Q141-360 51-360Q16-360-14-355.50Q-44-351-76-341L-67-208Q-64-188-51-182.50Q-38-177-1-177Q36-177 61.50-169.50Q87-162 102-145.50Q117-129 123.50-102Q130-75 130-35L130 1026L378 1026M412 1325Q412 1293 399 1265Q386 1237 364.50 1216Q343 1195 313.50 1182.50Q284 1170 251 1170Q219 1170 191 1182.50Q163 1195 142 1216Q121 1237 108.50 1265Q96 1293 96 1325Q96 1358 108.50 1387Q121 1416 142 1437Q163 1458 191 1470.50Q219 1483 251 1483Q284 1483 313.50 1470.50Q343 1458 364.50 1437Q386 1416 399 1387Q412 1358 412 1325Z"  horiz-adv-x="508" vert-adv-y="2000"  />

      
      <glyph glyph-name="uni0237" unicode="&#x0237;" d="M378 1026L378-35Q378-102 360.50-161Q343-220 304.50-264.50Q266-309 203.50-334.50Q141-360 51-360Q16-360-14-355.50Q-44-351-75-341L-66-208Q-63-188-50.50-182.50Q-38-177 0-177Q37-177 62-169.50Q87-162 102.50-145.50Q118-129 124.50-102Q131-75 131-35L131 1026L378 1026Z"  horiz-adv-x="510" vert-adv-y="2000"  />

      
      <glyph glyph-name="uni6b" unicode="&#x6b;" d="M369 1486L369 635L415 635Q440 635 454.50 641.50Q469 648 484 668L739 983Q755 1004 774.50 1015Q794 1026 825 1026L1051 1026L732 645Q698 600 658 576Q679 561 695.50 541Q712 521 727 498L1069 0L846 0Q817 0 796 9.50Q775 19 761 44L499 433Q485 456 470 463Q455 470 425 470L369 470L369 0L122 0L122 1486L369 1486Z"  horiz-adv-x="1069" vert-adv-y="2000"  />

      
      <glyph glyph-name="uni0138" unicode="&#x0138;" d="M369 1026L369 635L415 635Q440 635 454.50 641.50Q469 648 484 668L739 983Q755 1004 774.50 1015Q794 1026 825 1026L1051 1026L732 645Q698 600 658 576Q679 561 695.50 541Q712 521 727 498L1069 0L846 0Q817 0 796 9.50Q775 19 761 44L499 433Q485 456 470 463Q455 470 425 470L369 470L369 0L122 0L122 1026L369 1026Z"  horiz-adv-x="1069" vert-adv-y="2000"  />

      
      <glyph glyph-name="uni0142" unicode="&#x0142;" d="M632 1032L632 891Q632 850 598 837L454 776L454 0L207 0L207 690L39 621L39 767Q39 801 69 815L207 874L207 1486L454 1486L454 961L632 1032Z"  horiz-adv-x="659" vert-adv-y="2000"  />

      
      <glyph glyph-name="uni013E" unicode="&#x013E;" d="M372 1486L372 0L125 0L125 1486L372 1486M694 1488Q722 1488 728.50 1475.50Q735 1463 735 1451Q735 1442 731.50 1426.50Q728 1411 717.50 1381.50Q707 1352 688 1305.50Q669 1259 639 1187Q626 1158 606 1150Q586 1142 554 1142L466 1142L528 1488L694 1488Z"  horiz-adv-x="496" vert-adv-y="2000"  />

      
      <glyph glyph-name="uni6d" unicode="&#x6d;" d="M122 0L122 1026L273 1026Q321 1026 336 981L352 905Q379 935 408.50 960Q438 985 471.50 1003Q505 1021 543.50 1031.50Q582 1042 628 1042Q725 1042 787.50 989.50Q850 937 881 850Q905 901 941 937.50Q977 974 1020 997Q1063 1020 1111.50 1031Q1160 1042 1209 1042Q1294 1042 1360 1016Q1426 990 1471 940Q1516 890 1539.50 818Q1563 746 1563 653L1563 0L1316 0L1316 653Q1316 751 1273 800.50Q1230 850 1147 850Q1109 850 1076.50 837Q1044 824 1019.50 799.50Q995 775 981 738Q967 701 967 653L967 0L719 0L719 653Q719 756 677.50 803Q636 850 556 850Q502 850 455.50 823.50Q409 797 369 751L369 0L122 0Z"  horiz-adv-x="1675" vert-adv-y="2000"  />

      
      <glyph glyph-name="uni6e" unicode="&#x6e;" d="M353 900Q384 931 418.50 957.50Q453 984 491.50 1002.50Q530 1021 574 1031.50Q618 1042 670 1042Q754 1042 819 1013.50Q884 985 927.50 933.50Q971 882 993.50 810.50Q1016 739 1016 653L1016 0L769 0L769 653Q769 747 726 798.50Q683 850 595 850Q531 850 475 821Q419 792 369 742L369 0L122 0L122 1026L273 1026Q321 1026 336 981L353 900Z"  horiz-adv-x="1128" vert-adv-y="2000"  />

      
      <glyph glyph-name="uni014B" unicode="&#x014B;" d="M353 900Q384 931 418.50 957.50Q453 984 491.50 1002.50Q530 1021 574 1031.50Q618 1042 670 1042Q754 1042 819 1013.50Q884 985 927.50 933.50Q971 882 993.50 810.50Q1016 739 1016 653L1016 36Q1016-51 994.50-124Q973-197 927.50-249.50Q882-302 811-331.50Q740-361 642-361Q589-361 546.50-351Q504-341 455-321L482-213Q490-184 504.50-175Q519-166 537-166Q552-166 569.50-172Q587-178 619-178Q694-178 731.50-133Q769-88 769 7L769 653Q769 747 726 798.50Q683 850 595 850Q531 850 475 821Q419 792 369 742L369 0L122 0L122 1026L273 1026Q321 1026 336 981L353 900Z"  horiz-adv-x="1128" vert-adv-y="2000"  />

      
      <glyph glyph-name="uni6f" unicode="&#x6f;" d="M576 1042Q690 1042 783.50 1005Q877 968 943.50 900Q1010 832 1046 734Q1082 636 1082 515Q1082 393 1046 295Q1010 197 943.50 128Q877 59 783.50 22Q690-15 576-15Q461-15 367 22Q273 59 206.50 128Q140 197 103.50 295Q67 393 67 515Q67 636 103.50 734Q140 832 206.50 900Q273 968 367 1005Q461 1042 576 1042M576 175Q704 175 765.50 261Q827 347 827 513Q827 679 765.50 766Q704 853 576 853Q446 853 383.50 765.50Q321 678 321 513Q321 348 383.50 261.50Q446 175 576 175Z"  horiz-adv-x="1149" vert-adv-y="2000"  />

      
      <glyph glyph-name="unif8" unicode="&#xf8;" d="M438 199Q497 167 576 167Q704 167 773 257Q842 347 842 513Q842 572 834 620Q826 668 811 706L438 199M714 826Q658 860 576 860Q445 860 375.50 769.50Q306 679 306 513Q306 394 339 316L714 826M950 893Q1013 825 1047.50 729.50Q1082 634 1082 515Q1082 393 1046 295Q1010 197 943.50 128Q877 59 783.50 22Q690-15 576-15Q504-15 440.50-0.50Q377 14 323 42L288-5Q274-25 256.50-39Q239-53 219.50-61.50Q200-70 179-73.50Q158-77 139-77L49-77L203 132Q137 201 102 297.50Q67 394 67 515Q67 636 103.50 734Q140 832 206.50 900Q273 968 367 1005Q461 1042 576 1042Q720 1042 831 984L886 1059Q898 1077 908.50 1090Q919 1103 931.50 1110.50Q944 1118 960 1121.50Q976 1125 998 1125L1120 1125L950 893Z"  horiz-adv-x="1148" vert-adv-y="2000"  />

      
      <glyph glyph-name="uni0153" unicode="&#x0153;" d="M556 175Q674 175 731 261Q788 347 788 513Q788 679 731 766Q674 853 556 853Q436 853 379 765.50Q322 678 322 513Q322 347 378.50 261Q435 175 556 175M1466 611Q1466 660 1454 706Q1442 752 1417.50 787.50Q1393 823 1355.50 844Q1318 865 1267 865Q1163 865 1105.50 798.50Q1048 732 1034 611L1466 611M1033 462Q1047 315 1116.50 245.50Q1186 176 1296 176Q1351 176 1391.50 190Q1432 204 1462.50 221Q1493 238 1517 252Q1541 266 1564 266Q1593 266 1607 243L1680 153Q1639 105 1589.50 72.50Q1540 40 1487 20.50Q1434 1 1379-7Q1324-15 1272-15Q1164-15 1069.50 34Q975 83 914 187Q854 90 757.50 37.50Q661-15 532-15Q431-15 345.50 22Q260 59 198 128Q136 197 101.50 295Q67 393 67 515Q67 636 102 734Q137 832 199.50 900Q262 968 349.50 1005Q437 1042 542 1042Q666 1042 760 991Q854 940 912 845Q967 935 1059 988.50Q1151 1042 1278 1042Q1365 1042 1439.50 1008.50Q1514 975 1569 912Q1624 849 1655 759Q1686 669 1686 557Q1686 529 1683.50 510.50Q1681 492 1675 481.50Q1669 471 1658.50 466.50Q1648 462 1631 462L1033 462Z"  horiz-adv-x="1752" vert-adv-y="2000"  />

      
      <glyph glyph-name="uni70" unicode="&#x70;" d="M369 266Q411 215 460.50 194Q510 173 568 173Q624 173 669 194Q714 215 745.50 258Q777 301 794 366.50Q811 432 811 521Q811 611 796.50 673.50Q782 736 755 775Q728 814 689.50 832Q651 850 602 850Q525 850 471 817.50Q417 785 369 726L369 266M356 886Q419 957 499 1001Q579 1045 687 1045Q771 1045 840.50 1010Q910 975 960.50 908.50Q1011 842 1038.50 744.50Q1066 647 1066 521Q1066 406 1035 308Q1004 210 946.50 138Q889 66 807.50 25.50Q726-15 625-15Q539-15 478 11.50Q417 38 369 85L369-335L122-335L122 1026L273 1026Q321 1026 336 981L356 886Z"  horiz-adv-x="1136" vert-adv-y="2000"  />

      
      <glyph glyph-name="unife" unicode="&#xfe;" d="M369 266Q411 215 460.50 194Q510 173 568 173Q624 173 669 194Q714 215 745.50 258Q777 301 794 366.50Q811 432 811 521Q811 611 796.50 673.50Q782 736 755 775Q728 814 689.50 832Q651 850 602 850Q525 850 471 817.50Q417 785 369 726L369 266M369 900Q430 964 507.50 1003Q585 1042 687 1042Q771 1042 840.50 1007.50Q910 973 960.50 907Q1011 841 1038.50 744Q1066 647 1066 521Q1066 406 1035 308Q1004 210 946.50 138Q889 66 807.50 25.50Q726-15 625-15Q537-15 476.50 16.50Q416 48 369 102L369-335L122-335L122 1486L369 1486L369 900Z"  horiz-adv-x="1136" vert-adv-y="2000"  />

      
      <glyph glyph-name="uni71" unicode="&#x71;" d="M766 764Q725 815 675 836Q625 857 568 857Q512 857 467 836Q422 815 390 772.50Q358 730 341 664.50Q324 599 324 510Q324 420 338.50 357.50Q353 295 380 255.50Q407 216 446 198.50Q485 181 533 181Q610 181 664 213Q718 245 766 304L766 764M1013 1026L1013-335L766-335L766 130Q705 65 628 25Q551-15 449-15Q365-15 295 20Q225 55 174.50 121.50Q124 188 96.50 286Q69 384 69 510Q69 624 100 722Q131 820 189 892Q247 964 328 1004.50Q409 1045 510 1045Q606 1045 671 1012Q736 979 787 923L800 981Q813 1026 862 1026L1013 1026Z"  horiz-adv-x="1135" vert-adv-y="2000"  />

      
      <glyph glyph-name="uni72" unicode="&#x72;" d="M355 848Q403 940 469 992.50Q535 1045 625 1045Q696 1045 739 1014L723 829Q718 811 708.50 803.50Q699 796 683 796Q668 796 638.50 801Q609 806 581 806Q540 806 508 794Q476 782 450.50 759.50Q425 737 405.50 705Q386 673 369 632L369 0L122 0L122 1026L267 1026Q305 1026 320 1012.50Q335 999 340 964L355 848Z"  horiz-adv-x="746" vert-adv-y="2000"  />

      
      <glyph glyph-name="uni73" unicode="&#x73;" d="M748 826Q738 810 727 803.50Q716 797 699 797Q681 797 660.50 807Q640 817 613 829.50Q586 842 551.50 852Q517 862 470 862Q397 862 355.50 831Q314 800 314 750Q314 717 335.50 694.50Q357 672 392.50 655Q428 638 473 624.50Q518 611 564.50 595Q611 579 656 558.50Q701 538 736.50 506.50Q772 475 793.50 431Q815 387 815 325Q815 251 788.50 188.50Q762 126 710 80.50Q658 35 581.50 9.50Q505-16 405-16Q352-16 301.50-6.50Q251 3 204.50 20Q158 37 118.50 60Q79 83 49 110L106 204Q117 221 132 230Q147 239 170 239Q193 239 213.50 226Q234 213 261 198Q288 183 324.50 170Q361 157 417 157Q461 157 492.50 167.50Q524 178 544.50 195Q565 212 574.50 234.50Q584 257 584 281Q584 317 562.50 340Q541 363 505.50 380Q470 397 424.50 410.50Q379 424 331.50 440Q284 456 238.50 477.50Q193 499 157.50 532Q122 565 100.50 613Q79 661 79 729Q79 792 104 849Q129 906 177.50 948.50Q226 991 298.50 1016.50Q371 1042 466 1042Q572 1042 659 1007Q746 972 804 915L748 826Z"  horiz-adv-x="879" vert-adv-y="2000"  />

      
      <glyph glyph-name="uni015F" unicode="&#x015F;" d="M748 826Q738 810 727 803.50Q716 797 699 797Q681 797 660.50 807Q640 817 613 829.50Q586 842 551.50 852Q517 862 470 862Q397 862 355.50 831Q314 800 314 750Q314 717 335.50 694.50Q357 672 392.50 655Q428 638 473 624.50Q518 611 564.50 595Q611 579 656 558.50Q701 538 736.50 506.50Q772 475 793.50 431Q815 387 815 325Q815 259 793.50 202Q772 145 730.50 101Q689 57 627.50 28Q566-1 486-11L472-61Q566-83 604-120.50Q642-158 642-210Q642-244 624.50-271Q607-298 574.50-317Q542-336 497-346Q452-356 398-356Q357-356 321.50-350.50Q286-345 251-334L274-257Q280-234 303-234Q317-234 333.50-241.50Q350-249 382-249Q415-249 431.50-236.50Q448-224 448-206Q448-177 412-164.50Q376-152 301-141L345-13Q256-3 178 30Q100 63 49 110L106 204Q117 221 132 230Q147 239 170 239Q193 239 213.50 226Q234 213 261 198Q288 183 324.50 170Q361 157 417 157Q461 157 492.50 167.50Q524 178 544.50 195Q565 212 574.50 234.50Q584 257 584 281Q584 317 562.50 340Q541 363 505.50 380Q470 397 424.50 410.50Q379 424 331.50 440Q284 456 238.50 477.50Q193 499 157.50 532Q122 565 100.50 613Q79 661 79 729Q79 792 104 849Q129 906 177.50 948.50Q226 991 298.50 1016.50Q371 1042 466 1042Q572 1042 659 1007Q746 972 804 915L748 826Z"  horiz-adv-x="879" vert-adv-y="2000"  />

      
      <glyph glyph-name="unidf" unicode="&#xdf;" d="M646 1471Q763 1471 846 1437Q929 1403 981 1352Q1033 1301 1057 1242Q1081 1183 1081 1132Q1081 1074 1061.50 1033Q1042 992 1012.50 961Q983 930 949 907Q915 884 885.50 863Q856 842 836.50 819.50Q817 797 817 768Q817 735 842 711Q867 687 904 664Q941 641 985 615Q1029 589 1066 551.50Q1103 514 1128 461Q1153 408 1153 331Q1153 246 1121.50 181.50Q1090 117 1036 73Q982 29 910.50 6.50Q839-16 759-16Q713-16 668-6.50Q623 3 581.50 20Q540 37 503 60Q466 83 436 110L494 204Q504 221 519 230Q534 239 557 239Q580 239 601 226Q622 213 647 198Q672 183 704 170Q736 157 781 157Q844 157 882.50 194.50Q921 232 921 292Q921 339 894 370Q867 401 827 425.50Q787 450 739.50 473.50Q692 497 652 528.50Q612 560 585 605Q558 650 558 719Q558 776 579 817Q600 858 631.50 890Q663 922 699.50 947.50Q736 973 767.50 1000Q799 1027 820 1058Q841 1089 841 1131Q841 1164 829.50 1193.50Q818 1223 793 1244.50Q768 1266 729 1279Q690 1292 635 1292Q504 1292 436.50 1211.50Q369 1131 369 976L369 0L122 0L122 984Q122 1090 158 1179Q194 1268 262 1333Q330 1398 427 1434.50Q524 1471 646 1471Z"  horiz-adv-x="1205" vert-adv-y="2000"  />

      
      <glyph glyph-name="uni017F" unicode="&#x017F;" d="M195 1093Q195 1181 221.50 1251Q248 1321 297.50 1370Q347 1419 418 1445Q489 1471 578 1471Q649 1471 710 1452L702 1324Q700 1301 676 1296.50Q652 1292 620 1292Q576 1292 543 1281Q510 1270 487.50 1245.50Q465 1221 453.50 1181.50Q442 1142 442 1085L442 0L195 0L195 840L106 854Q77 860 59.50 874.50Q42 889 42 916L42 1017L195 1017L195 1093Z"  horiz-adv-x="603" vert-adv-y="2000"  />

      
      <glyph glyph-name="uni74" unicode="&#x74;" d="M464-16Q330-16 258.50 59.50Q187 135 187 268L187 841L82 841Q62 841 48 854Q34 867 34 893L34 991L199 1018L251 1298Q256 1318 270 1329Q284 1340 306 1340L434 1340L434 1017L708 1017L708 841L434 841L434 285Q434 237 457.50 210Q481 183 522 183Q545 183 560.50 188.50Q576 194 587.50 200Q599 206 608 211.50Q617 217 626 217Q637 217 644 211.50Q651 206 659 195L733 75Q679 30 609 7Q539-16 464-16Z"  horiz-adv-x="744" vert-adv-y="2000"  />

      
      <glyph glyph-name="uni0165" unicode="&#x0165;" d="M463-16Q329-16 257.50 59.50Q186 135 186 268L186 841L81 841Q61 841 47 854Q33 867 33 893L33 991L198 1018L250 1298Q255 1318 269 1329Q283 1340 305 1340L433 1340L433 1017L707 1017L707 841L433 841L433 285Q433 237 456.50 210Q480 183 521 183Q544 183 559.50 188.50Q575 194 586.50 200Q598 206 607 211.50Q616 217 625 217Q636 217 643 211.50Q650 206 658 195L732 75Q678 30 608 7Q538-16 463-16M827 1488Q855 1488 861.50 1475.50Q868 1463 868 1451Q868 1442 864.50 1426.50Q861 1411 850.50 1381.50Q840 1352 821 1305.50Q802 1259 772 1187Q759 1158 739 1150Q719 1142 687 1142L599 1142L661 1488L827 1488Z"  horiz-adv-x="743" vert-adv-y="2000"  />

      
      <glyph glyph-name="uni0167" unicode="&#x0167;" d="M59 694L189 694L189 841L84 841Q64 841 50 854Q36 867 36 893L36 991L201 1018L253 1298Q258 1318 272 1329Q286 1340 308 1340L436 1340L436 1017L710 1017L710 841L436 841L436 694L717 694L717 542L436 542L436 285Q436 237 459.50 210Q483 183 524 183Q547 183 562.50 188.50Q578 194 589.50 200Q601 206 610 211.50Q619 217 628 217Q639 217 646 211.50Q653 206 661 195L735 75Q681 30 611 7Q541-16 466-16Q332-16 260.50 59.50Q189 135 189 268L189 542L59 542L59 694Z"  horiz-adv-x="752" vert-adv-y="2000"  />

      
      <glyph glyph-name="uni75" unicode="&#x75;" d="M1006 1026L1006 0L855 0Q806 0 793 45L776 127Q713 63 637 23.50Q561-16 458-16Q374-16 309.50 12.50Q245 41 201 93Q157 145 134.50 216.50Q112 288 112 374L112 1026L359 1026L359 374Q359 280 402.50 228.50Q446 177 533 177Q597 177 653 205.50Q709 234 759 284L759 1026L1006 1026Z"  horiz-adv-x="1128" vert-adv-y="2000"  />

      
      <glyph glyph-name="uni0173" unicode="&#x0173;" d="M1107-294Q1074-316 1024.50-330.50Q975-345 920-345Q822-345 769-304Q716-263 716-198Q716-143 752.50-92.50Q789-42 857 0L855 0Q806 0 793 45L776 127Q713 63 637 23.50Q561-16 458-16Q374-16 309.50 12.50Q245 41 201 93Q157 145 134.50 216.50Q112 288 112 374L112 1026L359 1026L359 374Q359 280 402.50 228.50Q446 177 533 177Q597 177 653 205.50Q709 234 759 284L759 1026L1006 1026L1006 0Q986-11 967-25Q948-39 933-56.50Q918-74 909-94Q900-114 900-136Q900-166 919-183.50Q938-201 972-201Q991-201 1003-199Q1015-197 1022.50-194Q1030-191 1035.50-189Q1041-187 1046-187Q1064-187 1069-203L1107-294Z"  horiz-adv-x="1128" vert-adv-y="2000"  />

      
      <glyph glyph-name="uni76" unicode="&#x76;" d="M1047 1026L640 0L416 0L9 1026L213 1026Q241 1026 259.50 1013Q278 1000 284 980L482 432Q498 384 510 338Q522 292 531 246Q541 292 553 338Q565 384 582 432L784 980Q791 1000 809 1013Q827 1026 852 1026L1047 1026Z"  horiz-adv-x="1056" vert-adv-y="2000"  />

      
      <glyph glyph-name="uni77" unicode="&#x77;" d="M1587 1026L1261 0L1063 0Q1029 0 1016 44L832 637Q823 667 815.50 696.50Q808 726 803 756Q797 726 789.50 695.50Q782 665 773 635L586 44Q574 0 533 0L343 0L18 1026L215 1026Q242 1026 261 1013Q280 1000 286 980L433 432Q444 387 452.50 344Q461 301 467 258Q478 301 490.50 344Q503 387 517 432L687 982Q693 1002 710.50 1015Q728 1028 753 1028L862 1028Q888 1028 906.50 1015Q925 1002 931 982L1096 432Q1109 387 1120.50 343.50Q1132 300 1143 257Q1156 342 1180 432L1331 980Q1338 1000 1356 1013Q1374 1026 1399 1026L1587 1026Z"  horiz-adv-x="1605" vert-adv-y="2000"  />

      
      <glyph glyph-name="uni78" unicode="&#x78;" d="M1038 0L800 0Q773 0 756.50 14Q740 28 729 46L512 403Q507 386 500.50 371Q494 356 486 343L294 46Q283 29 267 14.50Q251 0 227 0L6 0L358 529L20 1026L258 1026Q285 1026 298 1018.50Q311 1011 321 994L536 652Q547 686 567 719L740 989Q762 1026 797 1026L1024 1026L687 540L1038 0Z"  horiz-adv-x="1044" vert-adv-y="2000"  />

      
      <glyph glyph-name="uni79" unicode="&#x79;" d="M1054 1026L495-282Q484-308 466.50-321.50Q449-335 413-335L229-335L421 77L6 1026L223 1026Q252 1026 268.50 1012Q285 998 293 980L511 448Q522 421 529.50 394Q537 367 544 339Q553 367 562 394.50Q571 422 582 449L788 980Q796 1000 814.50 1013Q833 1026 856 1026L1054 1026Z"  horiz-adv-x="1055" vert-adv-y="2000"  />

      
      <glyph glyph-name="uni7a" unicode="&#x7a;" d="M859 924Q859 898 850 873Q841 848 826 832L339 190L844 190L844 0L52 0L52 103Q52 120 60 143.50Q68 167 84 188L576 837L81 837L81 1026L859 1026L859 924Z"  horiz-adv-x="919" vert-adv-y="2000"  />

      
      <glyph glyph-name="uniaa" unicode="&#xaa;" d="M449 1091Q390 1089 352 1082.50Q314 1076 291.50 1065.50Q269 1055 260 1041Q251 1027 251 1011Q251 979 269.50 966.50Q288 954 323 954Q361 954 390.50 967.50Q420 981 449 1010L449 1091M111 1368Q167 1419 234 1442.50Q301 1466 379 1466Q436 1466 481 1448Q526 1430 557.50 1397.50Q589 1365 605.50 1321Q622 1277 622 1225L622 841L539 841Q515 841 502.50 848Q490 855 479 877L467 914Q443 894 421 878.50Q399 863 376 853Q353 843 326.50 838Q300 833 267 833Q225 833 191 844Q157 855 132.50 876.50Q108 898 94.50 929.50Q81 961 81 1002Q81 1035 98 1069.50Q115 1104 157 1132Q199 1160 270 1179Q341 1198 449 1200L449 1225Q449 1279 425.50 1301.50Q402 1324 357 1324Q323 1324 301 1317Q279 1310 262 1301Q245 1292 230 1285Q215 1278 194 1278Q175 1278 162.50 1288.50Q150 1299 142 1311L111 1368Z"  horiz-adv-x="734" vert-adv-y="2000"  />

      
      <glyph glyph-name="uniba" unicode="&#xba;" d="M402 1464Q475 1464 535 1442Q595 1420 638 1379.50Q681 1339 704.50 1280.50Q728 1222 728 1149Q728 1075 704.50 1015.50Q681 956 638 914.50Q595 873 535 851Q475 829 402 829Q329 829 268.50 851Q208 873 164.50 914.50Q121 956 97 1015.50Q73 1075 73 1149Q73 1222 97 1280.50Q121 1339 164.50 1379.50Q208 1420 268.50 1442Q329 1464 402 1464M402 973Q469 973 501.50 1015.50Q534 1058 534 1147Q534 1236 501.50 1278Q469 1320 402 1320Q332 1320 299.50 1278Q267 1236 267 1147Q267 1058 299.50 1015.50Q332 973 402 973Z"  horiz-adv-x="801" vert-adv-y="2000"  />

      
      <glyph glyph-name="uni207F" unicode="&#x207F;" d="M217 1380Q249 1412 286 1433Q323 1454 379 1454Q422 1454 456 1438.50Q490 1423 512.50 1396Q535 1369 547 1332.50Q559 1296 559 1253L559 917L387 917L387 1253Q387 1285 371.50 1302Q356 1319 326 1319Q303 1319 283 1310Q263 1301 244 1285L244 917L73 917L73 1446L164 1446Q196 1446 209 1411L217 1380Z"  horiz-adv-x="624" vert-adv-y="2000"  />

      
      <glyph glyph-name="uni60" unicode="&#x60;" d="M311 1462Q352 1462 372 1448.50Q392 1435 406 1409L549 1166L408 1166Q380 1166 362.50 1173.50Q345 1181 327 1201L80 1462L311 1462Z"  horiz-adv-x="800" vert-adv-y="2000"  />

      
      <glyph glyph-name="unib4" unicode="&#xb4;" d="M746 1462L499 1201Q480 1181 462.50 1173.50Q445 1166 417 1166L269 1166L411 1409Q426 1435 446 1448.50Q466 1462 506 1462L746 1462Z"  horiz-adv-x="800" vert-adv-y="2000"  />

      
      <glyph glyph-name="uni02C6" unicode="&#x02C6;" d="M745 1168L580 1168Q566 1168 551.50 1173.50Q537 1179 523 1193L425 1297Q414 1307 404 1321Q393 1307 383 1297L283 1193Q271 1180 256 1174Q241 1168 226 1168L55 1168L284 1446L516 1446L745 1168Z"  horiz-adv-x="800" vert-adv-y="2000"  />

      
      <glyph glyph-name="uni02C7" unicode="&#x02C7;" d="M745 1446L516 1168L284 1168L55 1446L226 1446Q241 1446 254.50 1441Q268 1436 276 1429L382 1318Q387 1313 392.50 1306.50Q398 1300 404 1293Q409 1300 414.50 1306.50Q420 1313 425 1318L530 1429Q538 1435 552 1440.50Q566 1446 580 1446L745 1446Z"  horiz-adv-x="800" vert-adv-y="2000"  />

      
      <glyph glyph-name="uni0315" unicode="&#x0315;" d="M502 1488Q530 1488 536.50 1475.50Q543 1463 543 1451Q543 1442 539.50 1426.50Q536 1411 525.50 1381.50Q515 1352 496 1305.50Q477 1259 447 1187Q434 1158 414 1150Q394 1142 362 1142L274 1142L336 1488L502 1488Z"   vert-adv-y="2000"  />

      
      <glyph glyph-name="uni02DC" unicode="&#x02DC;" d="M507 1359Q537 1359 554 1375.50Q571 1392 571 1435L721 1435Q721 1379 705.50 1333.50Q690 1288 663 1255.50Q636 1223 598.50 1205.50Q561 1188 516 1188Q480 1188 449 1201Q418 1214 391 1229Q364 1244 340.50 1257Q317 1270 297 1270Q268 1270 251.50 1252.50Q235 1235 235 1193L82 1193Q82 1249 97.50 1294.50Q113 1340 141 1372.50Q169 1405 206.50 1423Q244 1441 288 1441Q324 1441 355.50 1428Q387 1415 414 1400Q441 1385 464 1372Q487 1359 507 1359Z"  horiz-adv-x="800" vert-adv-y="2000"  />

      
      <glyph glyph-name="unia8" unicode="&#xa8;" d="M336 1292Q336 1264 325 1239.50Q314 1215 294.50 1197Q275 1179 249.50 1168.50Q224 1158 195 1158Q168 1158 143.50 1168.50Q119 1179 100.50 1197Q82 1215 71 1239.50Q60 1264 60 1292Q60 1321 71 1346.50Q82 1372 100.50 1391Q119 1410 143.50 1421Q168 1432 195 1432Q224 1432 249.50 1421Q275 1410 294.50 1391Q314 1372 325 1346.50Q336 1321 336 1292M740 1292Q740 1264 729 1239.50Q718 1215 699.50 1197Q681 1179 655.50 1168.50Q630 1158 601 1158Q573 1158 548 1168.50Q523 1179 504.50 1197Q486 1215 475 1239.50Q464 1264 464 1292Q464 1321 475 1346.50Q486 1372 504.50 1391Q523 1410 548 1421Q573 1432 601 1432Q630 1432 655.50 1421Q681 1410 699.50 1391Q718 1372 729 1346.50Q740 1321 740 1292Z"  horiz-adv-x="800" vert-adv-y="2000"  />

      
      <glyph glyph-name="uniaf" unicode="&#xaf;" d="M101 1372L699 1372L699 1214L101 1214L101 1372Z"  horiz-adv-x="800" vert-adv-y="2000"  />

      
      <glyph glyph-name="uni02C9" unicode="&#x02C9;" d="M101 1372L699 1372L699 1214L101 1214L101 1372Z"  horiz-adv-x="800" vert-adv-y="2000"  />

      
      <glyph glyph-name="uni02D8" unicode="&#x02D8;" d="M400 1161Q314 1161 256.50 1183.50Q199 1206 163.50 1245Q128 1284 113 1336Q98 1388 98 1446L271 1446Q271 1416 276.50 1392Q282 1368 296.50 1351.50Q311 1335 336 1326Q361 1317 400 1317Q439 1317 464 1326Q489 1335 503.50 1351.50Q518 1368 523.50 1392Q529 1416 529 1446L702 1446Q702 1388 687 1336Q672 1284 636.50 1245Q601 1206 543 1183.50Q485 1161 400 1161Z"  horiz-adv-x="800" vert-adv-y="2000"  />

      
      <glyph glyph-name="uni02DA" unicode="&#x02DA;" d="M177 1325Q177 1371 195 1409Q213 1447 243.50 1474Q274 1501 314 1516Q354 1531 398 1531Q443 1531 484 1516Q525 1501 556 1474Q587 1447 605.50 1409Q624 1371 624 1325Q624 1280 605.50 1243Q587 1206 556 1179.50Q525 1153 484 1138.50Q443 1124 398 1124Q354 1124 314 1138.50Q274 1153 243.50 1179.50Q213 1206 195 1243Q177 1280 177 1325M311 1325Q311 1287 334.50 1261.50Q358 1236 402 1236Q442 1236 466 1261.50Q490 1287 490 1325Q490 1367 466 1391.50Q442 1416 402 1416Q358 1416 334.50 1391.50Q311 1367 311 1325Z"  horiz-adv-x="800" vert-adv-y="2000"  />

      
      <glyph glyph-name="uni02DD" unicode="&#x02DD;" d="M532 1462L333 1201Q317 1181 298 1173.50Q279 1166 251 1166L150 1166L276 1409Q290 1435 310.50 1448.50Q331 1462 371 1462L532 1462M881 1462L629 1201Q611 1181 593.50 1173.50Q576 1166 547 1166L431 1166L608 1409Q617 1422 625.50 1431.50Q634 1441 644.50 1448Q655 1455 669 1458.50Q683 1462 703 1462L881 1462Z"  horiz-adv-x="800" vert-adv-y="2000"  />

      
      <glyph glyph-name="uni02D9" unicode="&#x02D9;" d="M559 1329Q559 1297 546 1268.50Q533 1240 511.50 1219Q490 1198 460.50 1185.50Q431 1173 398 1173Q366 1173 338 1185.50Q310 1198 289 1219Q268 1240 255.50 1268.50Q243 1297 243 1329Q243 1362 255.50 1390.50Q268 1419 289 1440.50Q310 1462 338 1474.50Q366 1487 398 1487Q431 1487 460.50 1474.50Q490 1462 511.50 1440.50Q533 1419 546 1390.50Q559 1362 559 1329Z"  horiz-adv-x="800" vert-adv-y="2000"  />

      
      <glyph glyph-name="unib8" unicode="&#xb8;" d="M450-61Q544-83 582-120.50Q620-158 620-210Q620-244 602.50-271Q585-298 552.50-317Q520-336 475-346Q430-356 376-356Q335-356 299.50-350.50Q264-345 229-334L252-257Q258-234 281-234Q295-234 311.50-241.50Q328-249 360-249Q393-249 409.50-236.50Q426-224 426-206Q426-177 390-164.50Q354-152 279-141L339 35L477 35L450-61Z"  horiz-adv-x="800" vert-adv-y="2000"  />

      
      <glyph glyph-name="uni02DB" unicode="&#x02DB;" d="M542-187Q560-187 565-203L603-294Q570-316 520.50-330.50Q471-345 416-345Q318-345 265-304Q212-263 212-198Q212-139 254-84.50Q296-30 374 12L502 0Q482-11 463-25Q444-39 429-56.50Q414-74 405-94Q396-114 396-136Q396-166 415-183.50Q434-201 468-201Q487-201 499-199Q511-197 518.50-194Q526-191 531.50-189Q537-187 542-187Z"  horiz-adv-x="800" vert-adv-y="2000"  />

      
      <glyph glyph-name="uni0393" unicode="&#x0393;" d="M1073 1239L431 1239L431 0L161 0L161 1446L1073 1446L1073 1239Z"  horiz-adv-x="1103" vert-adv-y="2000"  />

      
      <glyph glyph-name="uni0394" unicode="&#x0394;" d="M295 213L1074 213L748 1027Q734 1062 718.50 1111Q703 1160 689 1217Q675 1159 659.50 1111Q644 1063 630 1025L295 213M1344 235Q1376 156 1376 77L1376 0L18 0L18 76Q18 149 50 231L563 1446L837 1446L1344 235Z"  horiz-adv-x="1395" vert-adv-y="2000"  />

      
      <glyph glyph-name="uni0398" unicode="&#x0398;" d="M540 834L1074 834L1074 619L540 619L540 834M1540 723Q1540 564 1487.50 428.50Q1435 293 1339 194Q1243 95 1108 39.50Q973-16 808-16Q644-16 509 39.50Q374 95 277.50 194Q181 293 128 428.50Q75 564 75 723Q75 882 128 1017.50Q181 1153 277.50 1252Q374 1351 509 1406.50Q644 1462 808 1462Q918 1462 1015 1436.50Q1112 1411 1193 1364.50Q1274 1318 1338.50 1251.50Q1403 1185 1448 1103Q1493 1021 1516.50 925Q1540 829 1540 723M1265 723Q1265 842 1233 936.50Q1201 1031 1142 1097Q1083 1163 998.50 1198Q914 1233 808 1233Q702 1233 617.50 1198Q533 1163 473.50 1097Q414 1031 382 936.50Q350 842 350 723Q350 604 382 509.50Q414 415 473.50 349.50Q533 284 617.50 249Q702 214 808 214Q914 214 998.50 249Q1083 284 1142 349.50Q1201 415 1233 509.50Q1265 604 1265 723Z"  horiz-adv-x="1616" vert-adv-y="2000"  />

      
      <glyph glyph-name="uni039B" unicode="&#x039B;" d="M1398 0L1166 0Q1131 0 1109 17.50Q1087 35 1076 61L736 944Q719 987 703 1038.50Q687 1090 673 1147Q650 1032 616 944L277 61Q269 38 245.50 19Q222 0 188 0L-13 0L571 1446L814 1446L1398 0Z"  horiz-adv-x="1386" vert-adv-y="2000"  />

      
      <glyph glyph-name="uni039E" unicode="&#x039E;" d="M1173 1446L1173 1224L76 1224L76 1446L1173 1446M1173 222L1173 0L76 0L76 222L1173 222M324 841L922 841L922 611L324 611L324 841Z"  horiz-adv-x="1245" vert-adv-y="2000"  />

      
      <glyph glyph-name="uni03A0" unicode="&#x03A0;" d="M1380 0L1110 0L1110 1239L431 1239L431 0L161 0L161 1446L1380 1446L1380 0Z"  horiz-adv-x="1541" vert-adv-y="2000"  />

      
      <glyph glyph-name="uni03A3" unicode="&#x03A3;" d="M537 1239Q482 1239 438 1243Q394 1247 351 1255Q399 1230 437.50 1201.50Q476 1173 508 1138L723 873Q745 848 758.50 829.50Q772 811 779.50 796.50Q787 782 789.50 770Q792 758 792 746Q792 732 790 718Q788 704 780.50 687.50Q773 671 759 651Q745 631 723 606L457 288Q425 251 403 230.50Q381 210 358 196Q401 202 437.50 204.50Q474 207 505 207L1157 207L1157 0L60 0L60 100Q60 129 74.50 158.50Q89 188 109 210L554 722L91 1256Q78 1271 69 1291Q60 1311 60 1331L60 1446L1157 1446L1157 1239L537 1239Z"  horiz-adv-x="1225" vert-adv-y="2000"  />

      
      <glyph glyph-name="uni03A6" unicode="&#x03A6;" d="M980 287Q1073 289 1148 324Q1223 359 1276 418Q1329 477 1358 556.50Q1387 636 1387 726Q1387 816 1358 894.50Q1329 973 1276 1032.50Q1223 1092 1148 1127Q1073 1162 980 1164L980 287M725 1164Q632 1162 556.50 1127Q481 1092 428 1032.50Q375 973 346 894.50Q317 816 317 726Q317 636 346 556.50Q375 477 428 418Q481 359 556.50 324Q632 289 725 287L725 1164M980 1371Q1133 1369 1256.50 1318Q1380 1267 1467 1179Q1554 1091 1601 974.50Q1648 858 1648 726Q1648 638 1627 556Q1606 474 1566 402.50Q1526 331 1467.50 272Q1409 213 1335 170.50Q1261 128 1171.50 104.50Q1082 81 980 80L980-112L725-112L725 80Q571 81 447.50 132.50Q324 184 237 271.50Q150 359 103.50 476Q57 593 57 726Q57 858 104 974.50Q151 1091 238 1179Q325 1267 448.50 1318Q572 1369 725 1371L725 1559L980 1559L980 1371Z"  horiz-adv-x="1704" vert-adv-y="2000"  />

      
      <glyph glyph-name="uni03A8" unicode="&#x03A8;" d="M1579 1446L1579 927Q1579 799 1540 695.50Q1501 592 1424 517Q1347 442 1232 398Q1117 354 966 347L966 0L696 0L696 347Q545 355 431 399Q317 443 240.50 518Q164 593 125 696.50Q86 800 86 927L86 1446L266 1446Q309 1446 332.50 1420Q356 1394 356 1356L356 927Q356 843 373.50 777.50Q391 712 431 666.50Q471 621 536 594.50Q601 568 696 562L696 1446L966 1446L966 562Q1062 568 1127.50 594Q1193 620 1233.50 665.50Q1274 711 1291.50 776.50Q1309 842 1309 927L1309 1356Q1309 1394 1332.50 1420Q1356 1446 1399 1446L1579 1446Z"  horiz-adv-x="1666" vert-adv-y="2000"  />

      
      <glyph glyph-name="uni03A9" unicode="&#x03A9;" d="M1546 221L1546 84Q1546 47 1522 23.50Q1498 0 1456 0L925 0L925 304Q994 316 1054.50 358.50Q1115 401 1160.50 466Q1206 531 1232 615Q1258 699 1258 794Q1258 905 1222.50 987.50Q1187 1070 1126.50 1124Q1066 1178 985.50 1205Q905 1232 815 1232Q725 1232 644.50 1205Q564 1178 504 1124Q444 1070 408.50 987.50Q373 905 373 794Q373 699 399 615Q425 531 470.50 466Q516 401 576.50 358.50Q637 316 706 304L706 0L175 0Q133 0 109 23.50Q85 47 85 84L85 221L315 221Q362 221 411 216.50Q460 212 508 205Q419 237 345 294Q271 351 218 428Q165 505 135.50 598.50Q106 692 106 797Q106 941 160.50 1062.50Q215 1184 311 1273Q407 1362 536.50 1412Q666 1462 816 1462Q966 1462 1095.50 1412Q1225 1362 1320.50 1273Q1416 1184 1471 1062.50Q1526 941 1526 797Q1526 692 1496.50 598.50Q1467 505 1414 428.50Q1361 352 1287 294.50Q1213 237 1124 205Q1172 212 1220.50 216.50Q1269 221 1316 221L1546 221Z"  horiz-adv-x="1631" vert-adv-y="2000"  />

      
      <glyph glyph-name="uni03B1" unicode="&#x03B1;" d="M789 718Q775 745 754 770.50Q733 796 705 815Q677 834 643 845.50Q609 857 570 857Q522 857 477 837Q432 817 397.50 774Q363 731 342.50 663Q322 595 322 499Q322 412 339.50 351Q357 290 387 252.50Q417 215 456 198Q495 181 539 181Q582 181 620 197Q658 213 687.50 248Q717 283 737 338.50Q757 394 765 472L789 718M1199 172L1199 74Q1199 58 1188.50 43Q1178 28 1158 16Q1138 4 1109-3Q1080-10 1044-10Q1006-10 970.50 0Q935 10 904.50 30.50Q874 51 849.50 82Q825 113 809 156Q775 109 734.50 76.50Q694 44 651 23.50Q608 3 563.50-6Q519-15 477-15Q390-15 315 20Q240 55 185 120.50Q130 186 98.50 280Q67 374 67 492Q67 617 102 719Q137 821 198.50 893.50Q260 966 344 1005.50Q428 1045 526 1045Q623 1045 698.50 1008.50Q774 972 825 915L840 981Q855 1026 902 1026L1053 1026L1001 496Q999 448 995 400.50Q991 353 991 310Q991 274 1002 248Q1013 222 1031.50 205Q1050 188 1074.50 180Q1099 172 1126 172L1199 172Z"  horiz-adv-x="1205" vert-adv-y="2000"  />

      
      <glyph glyph-name="uni03B2" unicode="&#x03B2;" d="M368 273Q405 221 450 197.50Q495 174 561 174Q628 174 678 196Q728 218 760 255.50Q792 293 808 344Q824 395 824 452Q824 526 801.50 573Q779 620 742.50 646.50Q706 673 659 683Q612 693 563 693L501 693L501 886L533 886Q585 886 626 896Q667 906 694.50 928.50Q722 951 736.50 987.50Q751 1024 751 1077Q751 1183 702 1232.50Q653 1282 568 1282Q515 1282 477 1262Q439 1242 415 1198.50Q391 1155 379.50 1085.50Q368 1016 368 916L368 273M121 924Q121 1048 148 1147.50Q175 1247 230.50 1317Q286 1387 371 1424Q456 1461 572 1461Q681 1461 759 1429.50Q837 1398 887 1347Q937 1296 960.50 1231Q984 1166 984 1099Q984 993 933 913.50Q882 834 783 796Q852 777 906.50 742Q961 707 998 659.50Q1035 612 1054.50 552.50Q1074 493 1074 426Q1074 338 1042 258Q1010 178 950.50 117.50Q891 57 808 21Q725-15 623-15Q464-15 368 81L368-347L121-347L121 924Z"  horiz-adv-x="1136" vert-adv-y="2000"  />

      
      <glyph glyph-name="uni03B3" unicode="&#x03B3;" d="M1105 1026Q1080 913 1036.50 793Q993 673 937.50 553.50Q882 434 817 319.50Q752 205 684 103L684-335L437-335L437 101Q421 190 401 280.50Q381 371 356 455Q331 539 301.50 611.50Q272 684 237 738Q202 792 161 823Q120 854 73 854L35 854L35 944Q35 963 40 979.50Q45 996 58.50 1008.50Q72 1021 96 1028Q120 1035 157 1035Q256 1035 331.50 984Q407 933 462 840Q517 747 553 615.50Q589 484 610 324Q649 395 682 474Q715 553 741.50 634Q768 715 788 795.50Q808 876 822 950Q830 994 850 1010Q870 1026 895 1026L1105 1026Z"  horiz-adv-x="1118" vert-adv-y="2000"  />

      
      <glyph glyph-name="uni03B4" unicode="&#x03B4;" d="M560 173Q615 173 660.50 192.50Q706 212 739 249Q772 286 790 339Q808 392 808 459Q808 531 787.50 586.50Q767 642 733 686Q699 730 654 764.50Q609 799 560 829Q513 810 469 780.50Q425 751 391.50 708Q358 665 338 607.50Q318 550 318 474Q318 412 332.50 357.50Q347 303 377 262Q407 221 452.50 197Q498 173 560 173M921 1264Q916 1232 901.50 1222Q887 1212 857 1212Q840 1212 805 1220Q770 1228 726.50 1238Q683 1248 636 1256Q589 1264 549 1264Q483 1264 455.50 1244.50Q428 1225 428 1196Q428 1166 455 1140Q482 1114 526 1087Q570 1060 626 1029.50Q682 999 741 962Q800 925 856 878.50Q912 832 956 772Q1000 712 1027 636Q1054 560 1054 465Q1054 361 1020.50 273.50Q987 186 923.50 122Q860 58 768 22.50Q676-13 560-13Q443-13 351 23Q259 59 195 122.50Q131 186 97 274Q63 362 63 466Q63 627 145.50 742Q228 857 398 923Q356 948 319 975Q282 1002 255 1034.50Q228 1067 212 1106.50Q196 1146 196 1196Q196 1253 218.50 1300.50Q241 1348 286.50 1382.50Q332 1417 401.50 1436.50Q471 1456 566 1456Q604 1456 652 1453Q700 1450 750 1444.50Q800 1439 849.50 1431.50Q899 1424 940 1415L921 1264Z"  horiz-adv-x="1118" vert-adv-y="2000"  />

      
      <glyph glyph-name="uni03B5" unicode="&#x03B5;" d="M879 153Q838 105 789.50 73Q741 41 690 22Q639 3 588-5Q537-13 492-13Q408-13 332 8Q256 29 197.50 68.50Q139 108 104.50 166Q70 224 70 299Q70 383 117.50 442Q165 501 242 535Q201 554 172 580Q143 606 125 635.50Q107 665 98.50 696.50Q90 728 90 759Q90 816 116.50 867.50Q143 919 195.50 957.50Q248 996 325.50 1019Q403 1042 506 1042Q624 1042 709 1007Q794 972 853 915L797 820Q783 798 771 791.50Q759 785 742 785Q726 785 708 796Q690 807 663.50 819.50Q637 832 600 843Q563 854 510 854Q421 854 375.50 821Q330 788 330 736Q330 681 382 647Q434 613 531 613L696 613L696 452L531 452Q420 452 370.50 417Q321 382 321 320Q321 288 333.50 261.50Q346 235 369.50 215Q393 195 427.50 184Q462 173 506 173Q566 173 604.50 187.50Q643 202 670.50 219.50Q698 237 719 251.50Q740 266 763 266Q793 266 808 243L879 153Z"  horiz-adv-x="914" vert-adv-y="2000"  />

      
      <glyph glyph-name="uni03B6" unicode="&#x03B6;" d="M829 1344Q832 1331 828.50 1316.50Q825 1302 812.50 1282Q800 1262 775.50 1234.50Q751 1207 711 1168Q673 1131 627.50 1086.50Q582 1042 537 991.50Q492 941 449.50 884.50Q407 828 374 766.50Q341 705 321.50 639Q302 573 302 504Q302 446 317 404.50Q332 363 362.50 332Q393 301 439.50 278Q486 255 549 235Q639 206 696 174.50Q753 143 785.50 108Q818 73 830 33.50Q842-6 842-50Q842-119 819-187Q796-255 752-325L560-251Q569-237 578.50-219Q588-201 596-181.50Q604-162 609-141.50Q614-121 614-103Q614-85 607-68Q600-51 579-33Q558-15 520 3Q482 21 421 40Q334 67 267.50 103Q201 139 156 188Q111 237 88 301.50Q65 366 65 452Q65 562 101.50 664.50Q138 767 203.50 866.50Q269 966 358.50 1064.50Q448 1163 554 1265Q452 1247 334 1247L218 1247Q190 1247 170.50 1254.50Q151 1262 139 1273.50Q127 1285 121.50 1299Q116 1313 116 1327L116 1446L806 1446L829 1344Z"  horiz-adv-x="809" vert-adv-y="2000"  />

      
      <glyph glyph-name="uni03B7" unicode="&#x03B7;" d="M18 953Q18 969 24.50 984Q31 999 46 1011Q61 1023 84.50 1030Q108 1037 143 1037Q224 1037 286.50 1001Q349 965 379 890Q413 924 452 952Q491 980 534.50 1000Q578 1020 626 1031Q674 1042 728 1042Q812 1042 877 1013.50Q942 985 985.50 933.50Q1029 882 1051.50 810.50Q1074 739 1074 653L1074-335L827-335L827 653Q827 747 784 798.50Q741 850 654 850Q589 850 533 821Q477 792 428 742L428 0L180 0L180 724Q180 791 151 823Q122 855 67 855L18 855L18 953Z"  horiz-adv-x="1186" vert-adv-y="2000"  />

      
      <glyph glyph-name="uni03B8" unicode="&#x03B8;" d="M335 654Q339 528 359 437.50Q379 347 413 289.50Q447 232 495 204.50Q543 177 604 177Q664 177 711.50 204.50Q759 232 792.50 289.50Q826 347 846 437.50Q866 528 870 654L335 654M869 822Q863 941 842.50 1026.50Q822 1112 788.50 1167Q755 1222 708.50 1248Q662 1274 604 1274Q545 1274 498 1248Q451 1222 417 1167Q383 1112 362.50 1026.50Q342 941 336 822L869 822M604 1463Q719 1463 812.50 1416Q906 1369 972.50 1276Q1039 1183 1075 1045Q1111 907 1111 726Q1111 544 1075 405.50Q1039 267 972.50 173.50Q906 80 812.50 32.50Q719-15 604-15Q489-15 395 32.50Q301 80 234 173.50Q167 267 130.50 405.50Q94 544 94 726Q94 907 130.50 1045Q167 1183 234 1276Q301 1369 395 1416Q489 1463 604 1463Z"  horiz-adv-x="1205" vert-adv-y="2000"  />

      
      <glyph glyph-name="uni03B9" unicode="&#x03B9;" d="M115 1026L362 1026L362 304Q362 238 389 204Q416 170 479 170L572 170L572 95Q572 69 555.50 49.50Q539 30 512 16.50Q485 3 450.50-4Q416-11 381-11Q315-11 265.50 11.50Q216 34 182.50 74.50Q149 115 132 170Q115 225 115 290L115 1026Z"  horiz-adv-x="560" vert-adv-y="2000"  />

      
      <glyph glyph-name="uni03BB" unicode="&#x03BB;" d="M1101 170L1101 72Q1101 46 1093 29.50Q1085 13 1070.50 4Q1056-5 1035-8.50Q1014-12 988-12Q944-12 901-3Q858 6 819 29.50Q780 53 747.50 93.50Q715 134 693 198L560 553Q550 579 544.50 601Q539 623 536 643Q530 622 523 600.50Q516 579 507 556L308 46Q300 28 283 14Q266 0 236 0L24 0L419 923L332 1176Q321 1207 309 1226.50Q297 1246 280 1257.50Q263 1269 239.50 1273.50Q216 1278 183 1278L106 1278L106 1369Q106 1388 112.50 1404.50Q119 1421 135.50 1433Q152 1445 179 1452Q206 1459 247 1459Q289 1459 332 1451Q375 1443 414 1421.50Q453 1400 485.50 1363Q518 1326 539 1268L905 268Q922 217 951.50 193.50Q981 170 1039 170L1101 170Z"  horiz-adv-x="1099" vert-adv-y="2000"  />

      
      <glyph glyph-name="uni03BC" unicode="&#x03BC;" d="M1210 171L1210 73Q1210 57 1199.50 42Q1189 27 1168.50 15.50Q1148 4 1119.50-3Q1091-10 1055-10Q1013-10 974 2Q935 14 902.50 38.50Q870 63 845 101Q820 139 807 190Q753 106 684 60.50Q615 15 527 15Q467 15 420 31Q373 47 337 78Q347 35 350.50-10.50Q354-56 354-95L354-335L231-335Q179-335 150.50-308.50Q122-282 122-232L122 1026L369 1026L369 420Q369 327 413 271Q457 215 543 215Q623 215 679.50 259Q736 303 770 383L770 1026L1017 1026L1017 303Q1017 235 1049 203Q1081 171 1137 171L1210 171Z"  horiz-adv-x="1209" vert-adv-y="2000"  />

      
      <glyph glyph-name="uni03BD" unicode="&#x03BD;" d="M1030 1026Q1001 896 954.50 759Q908 622 848 488.50Q788 355 717 230Q646 105 568 0L415 0L8 1026L212 1026Q240 1026 258.50 1013Q277 1000 283 980L481 432Q495 388 506.50 345.50Q518 303 527 261Q571 335 605.50 421.50Q640 508 666.50 599Q693 690 713 781Q733 872 749 956Q754 995 774.50 1010.50Q795 1026 820 1026L1030 1026Z"  horiz-adv-x="1044" vert-adv-y="2000"  />

      
      <glyph glyph-name="uni03BE" unicode="&#x03BE;" d="M803 1344Q803 1322 794.50 1305Q786 1288 772.50 1276Q759 1264 741.50 1257.50Q724 1251 706 1251L613 1251Q555 1251 507.50 1234Q460 1217 426 1186.50Q392 1156 373.50 1113.50Q355 1071 355 1020Q355 935 420 894.50Q485 854 606 854L706 854L706 662L553 662Q490 662 444.50 647Q399 632 369.50 605Q340 578 326 540Q312 502 312 456Q312 410 328 376Q344 342 379 314Q414 286 469.50 261Q525 236 604 207Q664 185 704.50 159Q745 133 770.50 102.50Q796 72 807 36.50Q818 1 818-40Q818-116 795-185.50Q772-255 727-325L536-251Q545-237 554-219Q563-201 571-181.50Q579-162 584-143Q589-124 589-107Q589-87 583.50-69.50Q578-52 564-36.50Q550-21 526-8.50Q502 4 465 15Q387 37 315 69.50Q243 102 188 151.50Q133 201 100 269.50Q67 338 67 433Q67 475 77.50 522.50Q88 570 112 615Q136 660 176.50 700Q217 740 277 769Q204 805 165.50 863Q127 921 127 1002Q127 1046 141 1084.50Q155 1123 179.50 1155.50Q204 1188 237 1214.50Q270 1241 308 1262L183 1262Q127 1262 104.50 1287.50Q82 1313 82 1356L82 1446L803 1446L803 1344Z"  horiz-adv-x="809" vert-adv-y="2000"  />

      
      <glyph glyph-name="uni03C0" unicode="&#x03C0;" d="M1207 906Q1207 874 1187.50 852Q1168 830 1130 830L1003 830L1003 767Q1003 632 1006.50 535Q1010 438 1017 372Q1024 306 1035 266.50Q1046 227 1060.50 206Q1075 185 1093 178.50Q1111 172 1133 172L1178 172L1178 74Q1178 54 1166 39Q1154 24 1133 13.50Q1112 3 1084.50-2.50Q1057-8 1026-8Q893-8 830 81Q767 170 767 342Q767 387 771.50 436Q776 485 782.50 543.50Q789 602 795.50 672Q802 742 806 830L490 830Q486 658 474.50 528.50Q463 399 444 306Q425 213 398.50 152Q372 91 339 55Q306 19 266 5Q226-9 179-9Q164-9 146.50-6.50Q129-4 114 2Q99 8 89 17Q79 26 79 38L79 203L100 203Q132 203 161 236.50Q190 270 213.50 344.50Q237 419 253 538.50Q269 658 275 830L68 830L68 934Q68 948 74 963.50Q80 979 92 992Q104 1005 121.50 1013.50Q139 1022 161 1022L1207 1022L1207 906Z"  horiz-adv-x="1263" vert-adv-y="2000"  />

      
      <glyph glyph-name="uni03C1" unicode="&#x03C1;" d="M356 283Q401 224 458.50 198.50Q516 173 574 173Q630 173 675 194Q720 215 752 258Q784 301 801 366.50Q818 432 818 521Q818 611 801 673.50Q784 736 753 775Q722 814 679.50 832Q637 850 585 850Q538 850 496 832.50Q454 815 423 781Q392 747 374 696.50Q356 646 356 581L356 283M109 581Q109 686 140.50 771.50Q172 857 232.50 917Q293 977 382 1010Q471 1043 585 1043Q684 1043 772.50 1007.50Q861 972 927.50 904.50Q994 837 1033 740.50Q1072 644 1072 521Q1072 406 1041 308Q1010 210 952.50 138Q895 66 813.50 25.50Q732-15 631-15Q549-15 479.50 12.50Q410 40 356 88L356-335L109-335L109 581Z"  horiz-adv-x="1139" vert-adv-y="2000"  />

      
      <glyph glyph-name="uni03C3" unicode="&#x03C3;" d="M651 837Q477 837 399 752Q321 667 321 495Q321 175 574 175Q703 175 764.50 258Q826 341 826 509Q826 562 819 614Q812 666 796.50 710.50Q781 755 757 788Q733 821 700 837L651 837M1239 1024L1239 907Q1239 896 1233.50 883.50Q1228 871 1218 860.50Q1208 850 1193.50 843.50Q1179 837 1161 837L945 837Q1008 782 1044 697.50Q1080 613 1080 498Q1080 386 1044.50 292Q1009 198 943 129.50Q877 61 783.50 23Q690-15 575-15Q461-15 367.50 20.50Q274 56 207 122.50Q140 189 103 284.50Q66 380 66 500Q66 623 106.50 720.50Q147 818 223 885.50Q299 953 407.50 988.50Q516 1024 653 1024L1239 1024Z"  horiz-adv-x="1230" vert-adv-y="2000"  />

      
      <glyph glyph-name="uni03C2" unicode="&#x03C2;" d="M856 809Q845 795 834.50 787Q824 779 804 779Q785 779 767 790.50Q749 802 724 816.50Q699 831 664.50 842.50Q630 854 579 854Q514 854 465 831.50Q416 809 383.50 770Q351 731 335 678.50Q319 626 319 566Q319 477 339.50 421.50Q360 366 403 328.50Q446 291 512 264.50Q578 238 668 207Q728 185 769 159.50Q810 134 835.50 103.50Q861 73 872 37.50Q883 2 883-40Q883-116 860-185.50Q837-255 792-325L600-251Q609-236 618.50-218Q628-200 636-181Q644-162 649-142.50Q654-123 654-106Q654-87 648.50-69.50Q643-52 628.50-36.50Q614-21 590-8.50Q566 4 530 15Q468 34 409 55.50Q350 77 298.50 106Q247 135 204 174Q161 213 130 266.50Q99 320 82 390Q65 460 65 551Q65 650 97.50 739.50Q130 829 193.50 896Q257 963 350 1002.50Q443 1042 564 1042Q679 1042 765.50 1005Q852 968 921 899L856 809Z"  horiz-adv-x="944" vert-adv-y="2000"  />

      
      <glyph glyph-name="uni03C4" unicode="&#x03C4;" d="M933 925Q933 882 911 860Q889 838 848 838L564 838L564 306Q564 240 591 206Q618 172 681 172L773 172L773 97Q773 71 756.50 51.50Q740 32 713 18.50Q686 5 651.50-2Q617-9 582-9Q517-9 467 13.50Q417 36 383.50 76.50Q350 117 333 172Q316 227 316 292L316 838L17 838L17 943Q17 974 37.50 998Q58 1022 100 1022L933 1022L933 925Z"  horiz-adv-x="955" vert-adv-y="2000"  />

      
      <glyph glyph-name="uni03C5" unicode="&#x03C5;" d="M973 1026Q983 963 992.50 903.50Q1002 844 1009 786Q1016 728 1020.50 668.50Q1025 609 1025 546Q1025 399 984 292.50Q943 186 875 117.50Q807 49 718.50 16.50Q630-16 536-16Q434-16 355 11.50Q276 39 222 89.50Q168 140 139.50 212Q111 284 111 374L111 1026L358 1026L358 374Q358 327 372 290.50Q386 254 411.50 229Q437 204 473 190.50Q509 177 552 177Q594 177 636 194Q678 211 711 253.50Q744 296 765 367Q786 438 786 546Q786 597 780.50 646.50Q775 696 767 745.50Q759 795 750 845Q741 895 735 946Q733 968 739 983.50Q745 999 755 1008.50Q765 1018 778 1022Q791 1026 803 1026L973 1026Z"  horiz-adv-x="1119" vert-adv-y="2000"  />

      
      <glyph glyph-name="uni03C6" unicode="&#x03C6;" d="M884 167Q1053 170 1143.50 266.50Q1234 363 1234 541Q1234 615 1213.50 674Q1193 733 1160 774.50Q1127 816 1086 838Q1045 860 1005 860Q950 860 917 824.50Q884 789 884 700L884 167M652 700Q652 791 676.50 855.50Q701 920 747 961.50Q793 1003 858.50 1022.50Q924 1042 1005 1042Q1111 1042 1199 1003.50Q1287 965 1349.50 897.50Q1412 830 1446.50 738.50Q1481 647 1481 541Q1481 413 1437 311Q1393 209 1314 137Q1235 65 1125.50 25.50Q1016-14 884-15L884-335L652-335L652-15Q521-13 413 26Q305 65 227.50 134.50Q150 204 107 301Q64 398 64 515Q64 606 91 686Q118 766 167.50 832.50Q217 899 286 950.50Q355 1002 439 1036L504 937Q513 923 514 907Q515 891 510.50 877Q506 863 497.50 851.50Q489 840 479 836Q401 791 356 708Q311 625 311 513Q311 435 334 372Q357 309 401 264Q445 219 508.50 194Q572 169 652 167L652 700Z"  horiz-adv-x="1546" vert-adv-y="2000"  />

      
      <glyph glyph-name="uni03C7" unicode="&#x03C7;" d="M1002-172L1002-270Q1002-296 997.50-312Q993-328 982.50-337Q972-346 953.50-349.50Q935-353 908-353Q860-353 817-345Q774-337 736.50-314Q699-291 667-250.50Q635-210 608-144L463 190Q459 158 452 127.50Q445 97 437 74L266-287Q259-306 242.50-319.50Q226-333 197-333L19-333L353 384L192 756Q178 786 164 806Q150 826 132.50 837.50Q115 849 92 854Q69 859 36 859L-2 859L-2 949Q-2 968-1 984.50Q0 1001 8 1013.50Q16 1026 36 1033Q56 1040 95 1040Q150 1040 196 1030Q242 1020 279.50 997.50Q317 975 346.50 938Q376 901 399 848L544 516Q548 548 554.50 577Q561 606 569 629L731 981Q738 1000 754.50 1013.50Q771 1027 800 1027L978 1027L651 326L825-74Q836-98 848-116.50Q860-135 876-147.50Q892-160 913-166Q934-172 963-172L1002-172Z"  horiz-adv-x="986" vert-adv-y="2000"  />

      
      <glyph glyph-name="uni03C8" unicode="&#x03C8;" d="M1433 1026Q1445 963 1455 903.50Q1465 844 1471.50 786Q1478 728 1482 668.50Q1486 609 1486 546Q1486 398 1441 296.50Q1396 195 1319 130Q1242 65 1137.50 32.50Q1033 0 915-10L915-335L668-335L668-12Q522-1 416 39Q310 79 241.50 144.50Q173 210 140 299.50Q107 389 107 499L107 1026L278 1026Q293 1026 307 1017Q321 1008 331.50 994Q342 980 348 964Q354 948 354 933L354 499Q354 360 436.50 283Q519 206 668 185L668 1446L915 1446L915 183Q990 191 1050 213.50Q1110 236 1152 278.50Q1194 321 1216.50 386Q1239 451 1239 546Q1239 624 1232 680Q1225 736 1216 780Q1207 824 1198.50 863Q1190 902 1187 946Q1187 968 1192.50 983.50Q1198 999 1208 1008.50Q1218 1018 1230.50 1022Q1243 1026 1255 1026L1433 1026Z"  horiz-adv-x="1580" vert-adv-y="2000"  />

      
      <glyph glyph-name="uni03C9" unicode="&#x03C9;" d="M1386 1026Q1443 911 1479 781.50Q1515 652 1515 525Q1515 407 1486 308Q1457 209 1403.50 137Q1350 65 1273.50 24.50Q1197-16 1103-16Q1045-16 997.50-3Q950 10 911.50 32.50Q873 55 843.50 86.50Q814 118 792 154Q769 118 739.50 86.50Q710 55 671.50 32.50Q633 10 586.50-3Q540-16 483-16Q389-16 313 24.50Q237 65 183.50 137Q130 209 101 308Q72 407 72 525Q72 652 107.50 781.50Q143 911 201 1026L378 1026Q391 1026 406 1020.50Q421 1015 432 1002Q443 989 445.50 969Q448 949 436 919Q427 903 407.50 861Q388 819 368.50 763.50Q349 708 334 645.50Q319 583 319 525Q319 419 337 351.50Q355 284 383.50 245Q412 206 446.50 191.50Q481 177 514 177Q556 177 585 197Q614 217 633 253Q652 289 660.50 339Q669 389 669 448L669 691L916 691L916 448L917 448Q917 389 925.50 339Q934 289 953 253Q972 217 1001 197Q1030 177 1072 177Q1105 177 1139.50 191.50Q1174 206 1202.50 245Q1231 284 1249 351.50Q1267 419 1267 525Q1267 583 1252 645.50Q1237 708 1217.50 763.50Q1198 819 1179 861Q1160 903 1151 919Q1139 949 1141.50 969Q1144 989 1154.50 1002Q1165 1015 1180.50 1020.50Q1196 1026 1208 1026L1386 1026Z"  horiz-adv-x="1586" vert-adv-y="2000"  />

      
      <glyph glyph-name="uni0384" unicode="&#x0384;" d="M326 1144L383 1511L535 1511Q570 1511 582 1489.50Q594 1468 582 1432L469 1144L326 1144Z"  horiz-adv-x="800" vert-adv-y="2000"  />

      
      <glyph glyph-name="uni0385" unicode="&#x0385;" d="M323 1151L380 1519L532 1519Q567 1519 579 1497.50Q591 1476 579 1439L466 1151L323 1151M826 1295Q826 1272 817 1252.50Q808 1233 792.50 1218Q777 1203 756.50 1194.50Q736 1186 713 1186Q690 1186 669.50 1194.50Q649 1203 634 1218Q619 1233 610 1252.50Q601 1272 601 1295Q601 1319 610 1339.50Q619 1360 634 1375.50Q649 1391 669.50 1400Q690 1409 713 1409Q736 1409 756.50 1400Q777 1391 792.50 1375.50Q808 1360 817 1339.50Q826 1319 826 1295M282 1295Q282 1272 273 1252.50Q264 1233 248 1218Q232 1203 211.50 1194.50Q191 1186 167 1186Q145 1186 125 1194.50Q105 1203 90 1218Q75 1233 66 1252.50Q57 1272 57 1295Q57 1319 66 1339.50Q75 1360 90 1375.50Q105 1391 125 1400Q145 1409 167 1409Q191 1409 211.50 1400Q232 1391 248 1375.50Q264 1360 273 1339.50Q282 1319 282 1295Z"  horiz-adv-x="800" vert-adv-y="2000"  />

      
      <glyph glyph-name="uni0374" unicode="&#x0374;" d="M346 1519Q384 1352 340 1197.50Q296 1043 170 911L93 959Q70 973 68 992.50Q66 1012 77 1026Q105 1065 127.50 1101.50Q150 1138 159.50 1175Q169 1212 162.50 1251.50Q156 1291 127 1336L127 1455Q127 1483 142 1501Q157 1519 192 1519L346 1519Z"  horiz-adv-x="450" vert-adv-y="2000"  />

      
      <glyph glyph-name="uni0375" unicode="&#x0375;" d="M346 373Q384 206 340 51.50Q296-103 170-235L93-187Q70-173 68-153.50Q66-134 77-120Q105-81 127.50-44.50Q150-8 159.50 29Q169 66 162.50 105.50Q156 145 127 190L127 309Q127 337 142 355Q157 373 192 373L346 373Z"  horiz-adv-x="450" vert-adv-y="2000"  />

      
      <glyph glyph-name="uni0411" unicode="&#x0411;" d="M665 210Q740 210 790.50 226.50Q841 243 872 272Q903 301 916 340Q929 379 929 424Q929 473 916 513Q903 553 872 580.50Q841 608 791 623Q741 638 666 638L430 638L430 210L665 210M666 848Q807 848 907.50 817Q1008 786 1071.50 732.50Q1135 679 1165 606.50Q1195 534 1195 451Q1195 349 1159.50 266Q1124 183 1056 123.50Q988 64 889.50 32Q791 0 665 0L161 0L161 1446L1142 1446L1142 1238L430 1238L430 848L666 848Z"  horiz-adv-x="1259" vert-adv-y="2000"  />

      
      <glyph glyph-name="uni0413" unicode="&#x0413;" d="M1053 1239L431 1239L431 0L161 0L161 1446L1053 1446L1053 1239Z"  horiz-adv-x="1083" vert-adv-y="2000"  />

      
      <glyph glyph-name="uni0490" unicode="&#x0490;" d="M1053 1239L431 1239L431 0L161 0L161 1446L845 1446L845 1767L1053 1767L1053 1239Z"  horiz-adv-x="1083" vert-adv-y="2000"  />

      
      <glyph glyph-name="uni0414" unicode="&#x0414;" d="M1075 207L1075 1239L680 1239Q668 1026 647.50 861Q627 696 600 571Q573 446 540 357Q507 268 469 207L1075 207M1570 207L1570-267Q1570-302 1546.50-323Q1523-344 1485-344L1323-344L1323 0L261 0L261-267Q261-302 237.50-323Q214-344 176-344L14-344L14 207L172 207Q200 222 227.50 255Q255 288 281 348Q307 408 330.50 500Q354 592 373 724.50Q392 857 405.50 1035Q419 1213 426 1446L1345 1446L1345 207L1570 207Z"  horiz-adv-x="1616" vert-adv-y="2000"  />

      
      <glyph glyph-name="uni0416" unicode="&#x0416;" d="M2133 0L1954 0Q1895 0 1853.50 25.50Q1812 51 1787 93L1491 556Q1464 600 1431 618Q1398 636 1347 636L1194 636L1194 0L941 0L941 636L788 636Q738 636 704.50 618Q671 600 645 556L349 93Q324 51 282 25.50Q240 0 182 0L2 0L380 613Q415 674 456.50 710Q498 746 551 764Q507 781 475.50 811.50Q444 842 415 888L42 1446L255 1446Q296 1446 330.50 1426Q365 1406 386 1370L682 912Q709 868 741 854Q773 840 814 840L941 840L941 1446L1194 1446L1194 840L1322 840Q1363 840 1394.50 854Q1426 868 1454 912L1749 1370Q1770 1406 1804.50 1426Q1839 1446 1881 1446L2093 1446L1720 888Q1691 842 1660 811.50Q1629 781 1584 764Q1638 746 1679.50 710Q1721 674 1756 613L2133 0Z"  horiz-adv-x="2136" vert-adv-y="2000"  />

      
      <glyph glyph-name="uni0417" unicode="&#x0417;" d="M78 1310Q162 1382 277.50 1422Q393 1462 534 1462Q651 1462 745.50 1434Q840 1406 906 1355.50Q972 1305 1007.50 1235.50Q1043 1166 1043 1083Q1043 981 996.50 898.50Q950 816 856 765Q906 741 947.50 708.50Q989 676 1018.50 636.50Q1048 597 1064.50 551Q1081 505 1081 453Q1081 355 1044.50 270Q1008 185 938.50 122Q869 59 768 22.50Q667-14 537-14Q461-14 388.50-0.50Q316 13 250 38Q184 63 126 98Q68 133 23 176L102 305Q113 319 128.50 328.50Q144 338 163 338Q189 338 220 317.50Q251 297 295 272Q339 247 399.50 226.50Q460 206 545 206Q680 206 754 264Q828 322 828 442Q828 491 808 530Q788 569 751 596Q714 623 661.50 637.50Q609 652 545 652L341 652L340 868L526 868Q651 868 721.50 917.50Q792 967 792 1061Q792 1144 725.50 1193.50Q659 1243 533 1243Q460 1243 407.50 1227Q355 1211 316.50 1192.50Q278 1174 251.50 1158Q225 1142 204 1142Q184 1142 170 1152Q156 1162 144 1182L78 1310Z"  horiz-adv-x="1163" vert-adv-y="2000"  />

      
      <glyph glyph-name="uni0418" unicode="&#x0418;" d="M1380 1446L1380 0L1110 0L1110 906Q1110 957 1112.50 1013Q1115 1069 1124 1132Q1104 1076 1080.50 1028.50Q1057 981 1035 945L482 83Q473 68 460.50 53Q448 38 433 26.50Q418 15 400 7.50Q382 0 363 0L161 0L161 1446L431 1446L431 540Q431 489 428.50 432.50Q426 376 417 313Q437 369 460.50 417Q484 465 507 501L1059 1363Q1068 1378 1080.50 1393Q1093 1408 1108 1419.50Q1123 1431 1140.50 1438.50Q1158 1446 1178 1446L1380 1446Z"  horiz-adv-x="1541" vert-adv-y="2000"  />

      
      <glyph glyph-name="uni041A" unicode="&#x041A;" d="M1388 0L1144 0Q1106 0 1080.50 20Q1055 40 1033 79L725 565Q713 586 699.50 599.50Q686 613 670.50 621.50Q655 630 635.50 633Q616 636 591 636L430 636L430 0L161 0L161 1446L430 1446L430 840L566 840Q607 840 637 854Q667 868 693 906L1010 1374Q1030 1406 1057 1426Q1084 1446 1122 1446L1352 1446L959 866Q934 828 901 803Q868 778 828 764Q888 747 929.50 710.50Q971 674 1009 610L1388 0Z"  horiz-adv-x="1392" vert-adv-y="2000"  />

      
      <glyph glyph-name="uni041B" unicode="&#x041B;" d="M1327 0L1056 0L1056 1239L661 1239Q647 967 621.50 768.50Q596 570 560.50 430.50Q525 291 479.50 204Q434 117 380 68.50Q326 20 264 2.50Q202-15 134-15Q62-15 29-2Q-4 11-4 36L-4 204L73 204Q99 204 125.50 210Q152 216 178.50 235.50Q205 255 230.50 292Q256 329 279.50 391.50Q303 454 323.50 545Q344 636 360.50 764Q377 892 389.50 1060.50Q402 1229 408 1446L1327 1446L1327 0Z"  horiz-adv-x="1488" vert-adv-y="2000"  />

      
      <glyph glyph-name="uni0409" unicode="&#x0409;" d="M1562 210Q1637 210 1687.50 226.50Q1738 243 1768.50 272Q1799 301 1812.50 340Q1826 379 1826 424Q1826 473 1813 513Q1800 553 1769 580.50Q1738 608 1687.50 623Q1637 638 1562 638L1327 638L1327 210L1562 210M1562 848Q1703 848 1803.50 817Q1904 786 1968 732.50Q2032 679 2061.50 606.50Q2091 534 2091 451Q2091 349 2055.50 266Q2020 183 1952.50 123.50Q1885 64 1786.50 32Q1688 0 1562 0L1056 0L1056 1239L661 1239Q647 967 621.50 768.50Q596 570 560.50 430.50Q525 291 479.50 204Q434 117 380 68.50Q326 20 264 2.50Q202-15 134-15Q62-15 29-2Q-4 11-4 36L-4 204L73 204Q99 204 125.50 210Q152 216 178.50 235.50Q205 255 230.50 292Q256 329 279.50 391.50Q303 454 323.50 545Q344 636 360.50 764Q377 892 389.50 1060.50Q402 1229 408 1446L1327 1446L1327 848L1562 848Z"  horiz-adv-x="2133" vert-adv-y="2000"  />

      
      <glyph glyph-name="uni040A" unicode="&#x040A;" d="M1615 210Q1690 210 1740.50 226.50Q1791 243 1822 272Q1853 301 1866 340Q1879 379 1879 424Q1879 473 1866 513Q1853 553 1822.50 580.50Q1792 608 1741.50 623Q1691 638 1616 638L1380 638L1380 210L1615 210M1616 848Q1757 848 1857.50 817Q1958 786 2021.50 732.50Q2085 679 2115 606.50Q2145 534 2145 451Q2145 349 2109.50 266Q2074 183 2006 123.50Q1938 64 1839.50 32Q1741 0 1615 0L1110 0L1110 632L431 632L431 0L161 0L161 1446L431 1446L431 824L1110 824L1110 1446L1380 1446L1380 848L1616 848Z"  horiz-adv-x="2187" vert-adv-y="2000"  />

      
      <glyph glyph-name="uni0472" unicode="&#x0472;" d="M355 634Q366 535 402.50 457Q439 379 497 325Q555 271 633.50 242.50Q712 214 808 214Q904 214 982 242.50Q1060 271 1118 325Q1176 379 1212.50 457Q1249 535 1260 634L355 634M1257 834Q1243 928 1206 1002Q1169 1076 1111.50 1127.50Q1054 1179 977.50 1206Q901 1233 808 1233Q715 1233 638.50 1206Q562 1179 504 1127.50Q446 1076 409 1002Q372 928 358 834L1257 834M808 1462Q918 1462 1015 1436.50Q1112 1411 1193 1364.50Q1274 1318 1338.50 1251.50Q1403 1185 1448 1103Q1493 1021 1516.50 925Q1540 829 1540 723Q1540 564 1487.50 428.50Q1435 293 1339 194Q1243 95 1108 39.50Q973-16 808-16Q644-16 509 39.50Q374 95 277.50 194Q181 293 128 428.50Q75 564 75 723Q75 882 128 1017.50Q181 1153 277.50 1252Q374 1351 509 1406.50Q644 1462 808 1462Z"  horiz-adv-x="1616" vert-adv-y="2000"  />

      
      <glyph glyph-name="uni041F" unicode="&#x041F;" d="M1330 0L1059 0L1059 1239L431 1239L431 0L161 0L161 1446L1330 1446L1330 0Z"  horiz-adv-x="1491" vert-adv-y="2000"  />

      
      <glyph glyph-name="uni0423" unicode="&#x0423;" d="M1308 1446L724 201Q693 136 658 94Q623 52 582.50 28Q542 4 495.50-5.50Q449-15 396-15Q324-15 291-2Q258 11 258 36L258 204L336 204Q358 204 381 208Q404 212 426.50 224Q449 236 470 258Q491 280 509 316L566 432L-14 1446L238 1446Q273 1446 294 1429Q315 1412 329 1386L610 856Q633 812 651.50 769Q670 726 684 681Q710 771 751 856L996 1386Q1007 1408 1029 1427Q1051 1446 1085 1446L1308 1446Z"  horiz-adv-x="1289" vert-adv-y="2000"  />

      
      <glyph glyph-name="uni0474" unicode="&#x0474;" d="M991 1235Q1027 1347 1100.50 1401.50Q1174 1456 1295 1456Q1330 1456 1352.50 1453Q1375 1450 1387.50 1444Q1400 1438 1405 1428Q1410 1418 1410 1405L1410 1238L1355 1238Q1265 1238 1227 1134L812 0L569 0L-15 1446L201 1446Q236 1446 258 1429Q280 1412 291 1385L632 503Q649 460 664.50 408.50Q680 357 694 300Q706 357 720 408.50Q734 460 751 503L991 1235Z"  horiz-adv-x="1426" vert-adv-y="2000"  />

      
      <glyph glyph-name="uni0424" unicode="&#x0424;" d="M932 380Q1009 382 1073 412Q1137 442 1183 492.50Q1229 543 1254.50 610.50Q1280 678 1280 756Q1280 832 1254.50 899.50Q1229 967 1183 1018Q1137 1069 1073 1099Q1009 1129 932 1131L932 380M677 1131Q599 1129 535.50 1099Q472 1069 426 1018Q380 967 355 899.50Q330 832 330 756Q330 678 355 610.50Q380 543 426 492.50Q472 442 535.50 412Q599 382 677 380L677 1131M932 1338Q1067 1334 1180 1287Q1293 1240 1374.50 1161Q1456 1082 1502 978Q1548 874 1548 756Q1548 637 1502 532.50Q1456 428 1374.50 349Q1293 270 1180 223Q1067 176 932 172L932 0L677 0L677 172Q543 176 430 223.50Q317 271 235 349.50Q153 428 107 532.50Q61 637 61 756Q61 874 107 978Q153 1082 235 1160.50Q317 1239 430 1286Q543 1333 677 1338L677 1507L932 1507L932 1338Z"  horiz-adv-x="1609" vert-adv-y="2000"  />

      
      <glyph glyph-name="uni0426" unicode="&#x0426;" d="M1537 207L1537-267Q1537-302 1513.50-323Q1490-344 1452-344L1290-344L1290 0L161 0L161 1446L431 1446L431 207L1059 207L1059 1446L1330 1446L1330 207L1537 207Z"  horiz-adv-x="1589" vert-adv-y="2000"  />

      
      <glyph glyph-name="uni040F" unicode="&#x040F;" d="M1330 1446L1330 0L868 0L868-267Q868-302 844.50-323Q821-344 783-344L622-344L622 0L161 0L161 1446L431 1446L431 207L1059 207L1059 1446L1330 1446Z"  horiz-adv-x="1491" vert-adv-y="2000"  />

      
      <glyph glyph-name="uni0427" unicode="&#x0427;" d="M1191 1446L1191 0L920 0L920 579Q803 550 695.50 536Q588 522 494.50 527Q401 532 324 558.50Q247 585 192.50 638Q138 691 108 772.50Q78 854 78 969L78 1446L349 1446L349 969Q349 885 378 829.50Q407 774 473.50 748Q540 722 649.50 727Q759 732 920 771L920 1446L1191 1446Z"  horiz-adv-x="1352" vert-adv-y="2000"  />

      
      <glyph glyph-name="uni0428" unicode="&#x0428;" d="M2009 1446L2009 0L161 0L161 1446L431 1446L431 207L949 207L949 1446L1219 1446L1219 207L1739 207L1739 1446L2009 1446Z"  horiz-adv-x="2170" vert-adv-y="2000"  />

      
      <glyph glyph-name="uni0429" unicode="&#x0429;" d="M2216 207L2216-267Q2216-302 2192.50-323Q2169-344 2131-344L1969-344L1969 0L161 0L161 1446L431 1446L431 207L949 207L949 1446L1219 1446L1219 207L1739 207L1739 1446L2009 1446L2009 207L2216 207Z"  horiz-adv-x="2268" vert-adv-y="2000"  />

      
      </font>
</defs>
</svg>
